<?xml version="1.0" encoding="UTF-8" standalone="no"?>
<!DOCTYPE svg PUBLIC "-//W3C//DTD SVG 1.1//EN" "http://www.w3.org/Graphics/SVG/1.1/DTD/svg11.dtd">
<svg xmlns="http://www.w3.org/2000/svg" version="1.1" viewBox="0.00 0.00 1024.00 1024.00">
<path fill="#eeeeee" d="
  M 1024.00 0.00
  L 1024.00 1024.00
  L 0.00 1024.00
  L 0.00 0.00
  L 1024.00 0.00
  Z
  M 715.78 405.10
  L 714.00 404.46
  L 712.35 403.63
  L 710.84 402.63
  L 709.49 401.47
  L 707.69 399.37
  L 706.31 396.96
  L 705.36 394.28
  L 704.88 391.38
  L 704.68 390.97
  L 704.25 390.80
  L 691.71 390.80
  L 691.29 390.97
  L 691.11 391.38
  L 691.18 394.22
  L 691.53 397.00
  L 691.53 397.00
  L 691.53 397.00
  L 692.07 399.36
  L 692.81 401.69
  L 693.77 403.97
  L 694.94 406.22
  L 697.56 410.04
  L 700.66 413.25
  L 702.73 414.88
  L 704.95 416.30
  L 707.38 417.54
  L 709.95 418.54
  L 712.66 419.33
  L 715.48 419.89
  L 718.38 420.22
  L 721.37 420.32
  L 738.62 420.17
  L 738.99 420.04
  L 739.11 419.67
  L 739.11 406.07
  L 739.00 405.80
  L 738.73 405.69
  L 721.84 405.62
  L 718.15 405.49
  L 715.78 405.10
  Z
  M 662.35 432.34
  L 662.23 432.05
  L 661.94 431.94
  L 661.94 431.94
  L 661.92 431.94
  L 657.67 432.16
  L 653.91 431.93
  L 650.55 431.26
  L 647.53 430.14
  L 644.21 428.18
  L 641.20 425.56
  L 639.46 423.50
  L 637.20 420.30
  L 635.08 417.30
  L 633.46 415.34
  L 631.40 413.31
  L 629.23 411.48
  L 626.95 409.84
  L 624.56 408.39
  L 624.56 408.39
  L 620.32 406.41
  L 615.77 404.97
  L 613.38 404.52
  L 610.32 404.19
  L 602.19 403.90
  L 588.47 403.78
  L 586.31 403.65
  L 584.91 403.38
  L 578.05 401.16
  L 574.57 400.31
  L 569.79 400.18
  L 565.37 400.67
  L 561.30 401.78
  L 557.60 403.51
  L 557.60 403.51
  L 557.60 403.51
  L 554.80 405.41
  L 552.24 407.73
  L 549.93 410.47
  L 547.87 413.64
  L 546.80 415.98
  L 545.79 419.26
  L 544.55 423.10
  L 543.85 424.50
  L 543.08 425.62
  L 541.15 427.66
  L 538.97 429.32
  L 536.72 430.51
  L 535.38 430.94
  L 533.66 431.25
  L 529.08 431.46
  L 516.19 431.43
  L 508.15 431.57
  L 507.71 431.74
  L 507.57 432.18
  L 507.57 445.33
  L 507.72 445.77
  L 508.15 445.91
  L 529.75 446.00
  L 532.79 445.96
  L 535.61 445.70
  L 538.23 445.22
  L 540.64 444.52
  L 543.21 443.50
  L 545.62 442.29
  L 547.88 440.89
  L 549.99 439.31
  L 549.99 439.31
  L 552.18 437.29
  L 554.18 435.02
  L 555.97 432.52
  L 557.57 429.78
  L 558.46 427.63
  L 559.65 423.98
  L 560.88 420.73
  L 562.25 418.51
  L 564.05 416.79
  L 566.03 415.62
  L 568.32 414.91
  L 570.74 414.73
  L 573.32 415.04
  L 576.16 415.86
  L 577.77 416.49
  L 581.49 417.85
  L 584.23 418.48
  L 587.99 418.70
  L 605.49 418.48
  L 608.03 418.51
  L 610.47 418.79
  L 612.81 419.30
  L 615.06 420.05
  L 615.06 420.05
  L 615.06 420.05
  L 617.97 421.47
  L 620.70 423.32
  L 623.05 425.73
  L 626.16 429.86
  L 628.75 433.33
  L 631.27 436.25
  L 633.37 438.27
  L 635.70 440.14
  L 638.21 441.82
  L 640.88 443.28
  L 643.63 444.50
  L 646.45 445.46
  L 649.22 446.12
  L 651.99 446.50
  L 656.69 446.70
  L 661.99 446.60
  L 662.25 446.48
  L 662.35 446.22
  L 662.35 432.34
  Z
  M 763.37 432.73
  L 763.35 432.79
  L 763.57 433.07
  L 777.94 433.07
  L 778.27 432.94
  L 778.40 432.61
  L 778.40 415.09
  L 778.24 414.72
  L 777.87 414.56
  L 749.91 414.56
  L 749.62 414.66
  L 749.52 414.95
  L 749.52 418.63
  L 749.66 419.04
  L 750.07 419.17
  L 753.77 419.35
  L 756.98 420.03
  L 759.72 421.21
  L 761.98 422.89
  L 761.98 422.89
  L 761.98 422.89
  L 762.33 423.24
  L 763.92 425.42
  L 764.39 426.54
  L 764.64 427.70
  L 764.64 427.70
  L 764.64 427.70
  L 764.67 428.91
  L 764.47 430.16
  L 764.04 431.43
  L 763.37 432.73
  Z
  M 237.98 559.71
  L 237.67 559.62
  L 237.41 559.14
  L 237.51 474.26
  L 237.19 461.80
  L 236.80 457.47
  L 236.24 454.40
  L 234.82 450.12
  L 232.87 446.14
  L 230.44 442.53
  L 227.50 439.22
  L 224.05 436.20
  L 220.09 433.48
  L 217.97 432.29
  L 213.25 430.32
  L 208.17 429.06
  L 202.73 428.50
  L 196.93 428.66
  L 196.55 428.82
  L 196.42 429.21
  L 196.42 442.25
  L 196.42 442.30
  L 196.70 442.84
  L 197.29 443.01
  L 200.84 442.76
  L 204.20 442.95
  L 207.36 443.58
  L 210.32 444.65
  L 210.32 444.65
  L 210.32 444.65
  L 210.32 444.65
  L 212.40 445.74
  L 214.37 447.07
  L 216.22 448.64
  L 217.97 450.46
  L 220.11 453.26
  L 221.68 456.09
  L 222.67 458.94
  L 223.09 461.82
  L 223.09 461.82
  L 223.09 461.82
  L 223.11 462.50
  L 223.00 560.08
  L 223.28 565.74
  L 223.63 567.76
  L 224.13 569.26
  L 224.99 570.73
  L 226.09 571.95
  L 226.09 571.95
  L 226.09 571.95
  L 227.49 572.96
  L 229.16 573.68
  L 231.09 574.12
  L 233.27 574.27
  L 300.52 574.31
  L 300.77 574.23
  L 300.85 573.98
  L 300.85 560.29
  L 300.85 560.29
  L 300.68 559.88
  L 300.27 559.71
  L 237.98 559.71
  Z
  M 698.97 445.35
  L 738.49 445.35
  L 738.92 445.17
  L 739.10 444.74
  L 739.10 431.75
  L 738.98 431.38
  L 738.62 431.26
  L 715.38 431.10
  L 694.02 431.21
  L 692.68 431.38
  L 691.52 431.86
  L 690.72 432.46
  L 678.16 444.51
  L 668.21 454.47
  L 662.70 460.13
  L 659.19 463.41
  L 656.71 465.26
  L 654.78 466.14
  L 652.80 466.61
  L 652.80 466.61
  L 652.80 466.61
  L 652.80 466.61
  L 650.43 466.63
  L 647.98 466.09
  L 645.47 464.99
  L 642.88 463.33
  L 628.37 452.36
  L 609.86 437.97
  L 605.77 435.05
  L 601.79 432.79
  L 597.89 431.17
  L 594.10 430.21
  L 590.65 429.79
  L 587.29 429.73
  L 584.02 430.02
  L 580.85 430.67
  L 580.85 430.67
  L 580.85 430.67
  L 580.85 430.67
  L 577.56 431.77
  L 574.37 433.27
  L 571.29 435.18
  L 568.32 437.50
  L 565.79 440.20
  L 562.60 444.72
  L 559.67 448.91
  L 557.38 451.50
  L 555.57 453.04
  L 553.63 454.36
  L 553.63 454.36
  L 550.78 455.79
  L 547.69 456.81
  L 544.35 457.42
  L 540.76 457.62
  L 349.64 457.60
  L 349.36 457.88
  L 349.36 471.65
  L 349.36 471.65
  L 349.54 472.09
  L 349.98 472.26
  L 378.70 471.98
  L 413.81 471.97
  L 527.24 472.04
  L 540.97 471.96
  L 547.22 471.68
  L 550.11 471.15
  L 552.90 470.41
  L 555.59 469.48
  L 558.19 468.34
  L 561.52 466.51
  L 564.69 464.32
  L 567.67 461.76
  L 570.49 458.85
  L 573.52 454.86
  L 576.89 450.39
  L 579.56 447.55
  L 581.08 446.38
  L 582.75 445.44
  L 584.54 444.74
  L 586.42 444.29
  L 588.35 444.11
  L 590.30 444.18
  L 592.13 444.51
  L 593.92 445.10
  L 596.86 446.57
  L 599.82 448.59
  L 630.53 472.39
  L 635.58 476.06
  L 639.74 478.52
  L 643.73 480.18
  L 647.72 481.10
  L 651.93 481.29
  L 656.31 480.71
  L 660.43 479.48
  L 660.43 479.48
  L 662.90 478.36
  L 665.26 476.98
  L 667.52 475.33
  L 669.68 473.42
  L 688.88 453.88
  L 692.40 450.56
  L 697.96 445.73
  L 698.41 445.45
  L 698.97 445.35
  Z
  M 763.39 458.43
  L 804.02 458.43
  L 804.54 458.26
  L 804.71 457.75
  L 804.71 444.97
  L 804.51 444.50
  L 804.04 444.30
  L 749.24 444.30
  L 748.90 444.42
  L 748.78 444.76
  L 748.78 460.19
  L 748.62 460.56
  L 748.25 460.72
  L 727.86 460.69
  L 721.45 460.78
  L 716.00 461.08
  L 711.51 461.57
  L 707.99 462.26
  L 704.16 463.39
  L 700.46 464.74
  L 696.89 466.33
  L 693.46 468.14
  L 693.46 468.14
  L 693.46 468.14
  L 693.46 468.14
  L 690.11 470.22
  L 686.89 472.53
  L 683.81 475.08
  L 680.87 477.87
  L 676.45 482.71
  L 672.64 487.66
  L 669.44 492.72
  L 666.86 497.90
  L 664.65 503.93
  L 663.09 510.31
  L 662.24 516.80
  L 662.08 523.38
  L 662.64 529.79
  L 663.88 535.85
  L 665.82 541.62
  L 668.39 546.86
  L 672.15 552.58
  L 676.43 557.67
  L 678.78 560.01
  L 681.25 562.18
  L 683.84 564.18
  L 686.54 566.00
  L 689.92 567.97
  L 693.45 569.68
  L 697.12 571.14
  L 700.92 572.33
  L 704.85 573.25
  L 708.89 573.91
  L 713.03 574.29
  L 717.28 574.40
  L 778.08 574.29
  L 783.59 574.54
  L 785.68 574.83
  L 787.31 575.25
  L 789.66 576.21
  L 791.81 577.45
  L 791.81 577.45
  L 793.66 578.86
  L 795.34 580.51
  L 797.58 583.32
  L 799.27 586.19
  L 800.41 589.11
  L 800.99 592.09
  L 800.99 592.09
  L 800.99 592.09
  L 801.06 594.40
  L 800.81 596.74
  L 800.24 599.12
  L 799.35 601.53
  L 797.50 604.93
  L 795.14 607.80
  L 792.14 610.23
  L 790.28 611.32
  L 788.35 612.19
  L 788.35 612.19
  L 784.68 613.21
  L 780.76 613.56
  L 715.21 613.57
  L 714.88 613.70
  L 714.75 614.03
  L 714.75 627.32
  L 714.86 627.64
  L 715.18 627.76
  L 768.49 627.82
  L 781.68 627.63
  L 785.87 627.38
  L 788.45 627.02
  L 792.17 625.97
  L 795.64 624.61
  L 798.88 622.92
  L 801.89 620.92
  L 801.89 620.92
  L 801.89 620.92
  L 805.59 617.69
  L 808.85 613.88
  L 811.27 610.14
  L 813.13 606.18
  L 813.13 606.18
  L 813.13 606.18
  L 813.13 606.18
  L 814.27 602.65
  L 815.01 598.96
  L 815.35 595.11
  L 815.29 591.11
  L 815.02 588.56
  L 814.56 586.08
  L 813.27 581.79
  L 811.41 577.77
  L 808.98 573.96
  L 806.06 570.52
  L 802.67 567.44
  L 798.87 564.82
  L 794.82 562.74
  L 790.48 561.17
  L 787.78 560.56
  L 784.48 560.12
  L 776.13 559.76
  L 719.86 559.86
  L 712.01 559.66
  L 706.71 558.99
  L 703.18 558.03
  L 699.81 556.77
  L 696.52 555.17
  L 693.42 553.29
  L 690.76 551.33
  L 688.29 549.15
  L 686.01 546.77
  L 683.92 544.19
  L 682.08 541.48
  L 680.46 538.60
  L 679.06 535.56
  L 677.90 532.38
  L 677.05 529.16
  L 676.50 525.84
  L 676.24 522.34
  L 676.28 518.80
  L 676.63 515.12
  L 677.27 511.51
  L 678.19 507.99
  L 679.37 504.63
  L 681.42 500.12
  L 683.82 495.94
  L 686.56 492.11
  L 689.65 488.61
  L 689.65 488.61
  L 693.36 485.22
  L 697.47 482.22
  L 701.98 479.62
  L 706.89 477.40
  L 710.02 476.30
  L 713.00 475.52
  L 715.83 475.06
  L 718.52 474.92
  L 761.43 474.99
  L 762.35 474.67
  L 762.66 473.75
  L 762.66 459.16
  L 762.84 458.61
  L 763.39 458.43
  Z
  M 592.80 520.09
  L 594.32 519.01
  L 595.99 518.35
  L 597.75 518.10
  L 599.62 518.24
  L 601.44 518.75
  L 603.18 519.64
  L 604.71 520.86
  L 605.90 522.29
  L 606.75 523.95
  L 607.38 527.12
  L 607.59 532.21
  L 607.63 561.85
  L 607.91 569.03
  L 608.25 571.81
  L 608.71 574.04
  L 610.00 577.95
  L 611.70 581.64
  L 613.82 585.17
  L 616.30 588.42
  L 619.12 591.37
  L 622.25 593.97
  L 625.66 596.22
  L 629.32 598.08
  L 633.93 599.73
  L 636.78 600.35
  L 640.30 600.79
  L 644.49 601.04
  L 649.34 601.11
  L 705.95 600.99
  L 774.05 601.20
  L 780.98 601.05
  L 783.59 600.59
  L 784.79 600.09
  L 785.85 599.44
  L 786.76 598.63
  L 787.50 597.71
  L 788.06 596.70
  L 788.42 595.60
  L 788.57 593.67
  L 788.12 591.69
  L 787.12 589.87
  L 785.52 588.17
  L 784.42 587.43
  L 783.09 586.91
  L 781.53 586.59
  L 779.75 586.48
  L 646.03 586.60
  L 640.77 586.29
  L 638.57 585.90
  L 636.67 585.35
  L 634.25 584.34
  L 632.04 583.12
  L 630.03 581.71
  L 628.23 580.09
  L 628.23 580.09
  L 628.23 580.09
  L 628.23 580.09
  L 626.66 578.31
  L 625.30 576.33
  L 624.13 574.17
  L 623.15 571.81
  L 622.53 569.53
  L 622.09 566.71
  L 621.84 563.34
  L 621.77 559.44
  L 621.80 533.17
  L 621.53 525.46
  L 621.20 522.63
  L 620.74 520.47
  L 619.94 518.15
  L 618.92 515.99
  L 617.65 513.91
  L 616.17 512.00
  L 614.30 510.10
  L 612.22 508.44
  L 609.96 507.05
  L 607.53 505.92
  L 604.96 505.07
  L 602.27 504.51
  L 599.49 504.26
  L 596.64 504.31
  L 592.91 504.87
  L 589.41 505.97
  L 589.41 505.97
  L 587.32 506.96
  L 585.31 508.15
  L 583.40 509.57
  L 581.57 511.21
  L 580.11 512.81
  L 578.82 514.55
  L 577.72 516.41
  L 576.81 518.37
  L 576.08 520.46
  L 575.55 522.61
  L 575.23 524.81
  L 575.13 527.02
  L 575.20 560.16
  L 574.85 566.93
  L 574.42 569.55
  L 573.83 571.66
  L 572.47 574.67
  L 570.67 577.48
  L 568.48 580.03
  L 565.93 582.25
  L 563.23 584.00
  L 560.28 585.33
  L 557.27 586.17
  L 554.12 586.52
  L 553.52 586.53
  L 235.46 586.53
  L 229.88 586.33
  L 226.14 585.72
  L 223.86 584.92
  L 221.74 583.88
  L 219.32 582.28
  L 217.18 580.38
  L 215.26 578.14
  L 213.65 575.65
  L 212.37 572.95
  L 211.44 570.08
  L 210.87 567.08
  L 210.68 564.00
  L 210.89 467.78
  L 210.59 462.73
  L 210.20 460.93
  L 209.65 459.62
  L 208.37 457.87
  L 206.83 456.52
  L 204.50 455.36
  L 201.75 454.81
  L 197.34 454.71
  L 196.65 455.01
  L 196.36 455.71
  L 196.41 555.25
  L 196.52 561.94
  L 196.81 567.48
  L 197.28 571.87
  L 197.94 575.12
  L 198.80 577.78
  L 199.87 580.35
  L 201.13 582.82
  L 202.58 585.19
  L 204.24 587.47
  L 206.06 589.62
  L 208.04 591.62
  L 210.16 593.46
  L 212.38 595.10
  L 214.73 596.57
  L 217.18 597.84
  L 219.73 598.91
  L 222.33 599.76
  L 225.00 600.40
  L 227.64 600.79
  L 230.33 600.96
  L 231.00 600.97
  L 354.54 601.01
  L 545.97 600.95
  L 551.76 600.84
  L 556.60 600.54
  L 560.48 600.05
  L 563.41 599.37
  L 566.64 598.20
  L 569.68 596.79
  L 572.52 595.14
  L 575.18 593.25
  L 575.18 593.25
  L 575.18 593.25
  L 575.18 593.25
  L 575.18 593.25
  L 577.69 591.07
  L 579.99 588.65
  L 582.11 585.98
  L 584.02 583.06
  L 586.23 578.93
  L 587.81 575.00
  L 588.77 571.26
  L 589.11 567.71
  L 589.39 527.00
  L 589.57 525.34
  L 589.57 525.34
  L 589.99 523.95
  L 590.67 522.61
  L 591.61 521.32
  L 592.80 520.09
  Z
  M 598.52 492.14
  L 602.76 492.38
  L 606.86 493.10
  L 610.90 494.29
  L 614.73 495.93
  L 618.33 498.01
  L 621.67 500.49
  L 624.69 503.34
  L 627.36 506.54
  L 629.10 509.12
  L 630.62 511.87
  L 631.86 514.68
  L 632.87 517.63
  L 633.43 520.09
  L 633.83 523.16
  L 634.15 531.08
  L 634.28 563.52
  L 634.68 566.50
  L 635.76 569.23
  L 636.52 570.42
  L 637.44 571.47
  L 639.54 573.01
  L 640.86 573.54
  L 642.31 573.87
  L 645.13 574.13
  L 647.77 574.12
  L 648.28 573.92
  L 648.44 573.40
  L 648.43 537.01
  L 648.20 524.66
  L 647.87 520.30
  L 647.40 517.15
  L 646.00 512.01
  L 644.09 507.13
  L 642.63 504.19
  L 640.99 501.37
  L 639.18 498.68
  L 637.21 496.13
  L 635.04 493.68
  L 632.73 491.38
  L 630.27 489.24
  L 627.68 487.26
  L 624.97 485.45
  L 622.14 483.83
  L 619.21 482.38
  L 616.19 481.13
  L 613.12 480.09
  L 609.99 479.24
  L 606.78 478.60
  L 603.53 478.16
  L 598.50 477.91
  L 593.47 478.17
  L 590.21 478.62
  L 587.01 479.27
  L 583.88 480.12
  L 580.82 481.17
  L 577.80 482.43
  L 574.87 483.88
  L 572.05 485.51
  L 569.34 487.33
  L 566.76 489.31
  L 564.30 491.46
  L 561.99 493.76
  L 559.83 496.22
  L 557.86 498.78
  L 556.06 501.47
  L 554.43 504.29
  L 552.98 507.24
  L 551.08 512.12
  L 549.69 517.26
  L 549.22 520.41
  L 548.90 524.77
  L 548.70 537.13
  L 548.78 573.51
  L 548.94 574.03
  L 549.45 574.23
  L 552.09 574.24
  L 554.91 573.97
  L 556.36 573.64
  L 557.67 573.10
  L 559.77 571.56
  L 560.69 570.51
  L 561.45 569.32
  L 562.52 566.58
  L 562.91 563.60
  L 562.97 531.16
  L 563.27 523.24
  L 563.66 520.17
  L 564.22 517.71
  L 565.22 514.76
  L 566.46 511.94
  L 567.97 509.19
  L 569.70 506.60
  L 572.37 503.40
  L 575.38 500.54
  L 578.71 498.06
  L 582.31 495.97
  L 586.14 494.32
  L 590.17 493.11
  L 594.27 492.39
  L 598.52 492.14
  Z
  M 360.26 574.33
  L 372.09 574.41
  L 378.86 574.15
  L 383.84 573.38
  L 387.60 572.28
  L 391.16 570.91
  L 394.50 569.28
  L 397.64 567.38
  L 401.86 564.22
  L 405.72 560.59
  L 409.10 556.61
  L 411.94 552.37
  L 413.74 548.99
  L 415.23 545.50
  L 416.45 541.83
  L 417.35 538.10
  L 417.94 534.27
  L 418.21 530.42
  L 418.16 526.57
  L 417.80 522.74
  L 417.12 518.95
  L 416.14 515.24
  L 414.85 511.61
  L 413.26 508.09
  L 411.40 504.76
  L 409.24 501.58
  L 406.87 498.65
  L 404.23 495.92
  L 399.82 492.24
  L 395.00 489.19
  L 389.68 486.70
  L 384.04 484.87
  L 379.33 484.14
  L 372.54 483.87
  L 360.96 483.78
  L 349.39 483.69
  L 342.59 483.86
  L 337.87 484.51
  L 332.20 486.25
  L 326.84 488.66
  L 321.99 491.64
  L 317.52 495.24
  L 314.83 497.94
  L 312.41 500.83
  L 310.21 503.97
  L 308.29 507.28
  L 306.65 510.76
  L 305.30 514.37
  L 304.26 518.07
  L 303.53 521.85
  L 303.11 525.67
  L 303.00 529.52
  L 303.21 533.38
  L 303.74 537.21
  L 304.58 540.96
  L 305.74 544.65
  L 307.18 548.16
  L 308.93 551.57
  L 311.70 555.85
  L 315.01 559.89
  L 318.81 563.57
  L 322.99 566.80
  L 326.10 568.74
  L 329.42 570.43
  L 332.95 571.85
  L 336.69 573.01
  L 341.66 573.86
  L 348.42 574.23
  L 360.26 574.33
  Z
  M 426.24 529.27
  L 426.42 533.25
  L 426.90 537.12
  L 427.69 540.88
  L 428.80 544.53
  L 428.80 544.53
  L 430.84 549.38
  L 432.87 553.11
  L 435.17 556.56
  L 437.73 559.73
  L 440.55 562.61
  L 440.55 562.61
  L 444.89 566.15
  L 449.74 569.14
  L 455.10 571.59
  L 460.96 573.49
  L 464.50 574.14
  L 468.54 574.36
  L 483.97 574.31
  L 499.39 574.24
  L 503.44 573.99
  L 506.97 573.31
  L 512.81 571.36
  L 518.15 568.87
  L 522.98 565.84
  L 527.29 562.27
  L 527.29 562.27
  L 527.29 562.27
  L 527.29 562.27
  L 530.09 559.36
  L 532.62 556.18
  L 534.89 552.71
  L 536.90 548.96
  L 538.89 544.09
  L 538.89 544.09
  L 538.89 544.09
  L 539.97 540.43
  L 540.74 536.67
  L 541.19 532.79
  L 541.33 528.81
  L 541.16 524.83
  L 540.68 520.96
  L 539.88 517.20
  L 538.77 513.54
  L 538.77 513.54
  L 536.74 508.69
  L 534.70 504.96
  L 532.41 501.51
  L 529.85 498.34
  L 527.03 495.46
  L 527.03 495.46
  L 522.68 491.93
  L 517.83 488.94
  L 512.48 486.49
  L 506.62 484.58
  L 503.08 483.93
  L 499.03 483.72
  L 483.61 483.76
  L 468.18 483.84
  L 464.14 484.09
  L 460.61 484.77
  L 454.76 486.72
  L 449.43 489.21
  L 444.60 492.24
  L 440.28 495.80
  L 440.28 495.80
  L 440.28 495.80
  L 440.28 495.80
  L 437.48 498.71
  L 434.95 501.90
  L 432.68 505.36
  L 430.68 509.11
  L 428.68 513.98
  L 428.68 513.98
  L 427.60 517.64
  L 426.84 521.41
  L 426.38 525.28
  L 426.24 529.27
  Z
  M 689.04 525.52
  L 689.26 526.14
  L 689.89 526.35
  L 701.97 526.35
  L 702.24 526.26
  L 702.35 526.00
  L 702.87 521.86
  L 703.85 518.06
  L 705.30 514.60
  L 707.22 511.48
  L 707.22 511.48
  L 707.22 511.48
  L 707.22 511.48
  L 709.33 508.97
  L 711.82 506.73
  L 714.69 504.76
  L 717.93 503.07
  L 720.23 502.21
  L 722.79 501.63
  L 725.72 501.30
  L 729.25 501.19
  L 826.84 501.16
  L 827.31 501.00
  L 827.47 500.53
  L 827.47 487.20
  L 827.47 487.15
  L 827.28 486.78
  L 826.90 486.63
  L 737.26 486.79
  L 730.60 486.87
  L 725.06 487.15
  L 720.67 487.63
  L 717.40 488.31
  L 712.90 489.89
  L 708.67 491.93
  L 704.68 494.46
  L 701.05 497.42
  L 697.85 500.74
  L 695.09 504.41
  L 692.84 508.31
  L 691.08 512.48
  L 690.14 515.63
  L 689.48 518.89
  L 689.11 522.16
  L 689.04 525.52
  Z
  M 827.54 513.35
  L 827.39 512.99
  L 827.03 512.84
  L 749.69 512.84
  L 749.33 512.99
  L 749.18 513.35
  L 749.18 526.81
  L 749.33 527.17
  L 749.69 527.32
  L 827.03 527.32
  L 827.39 527.17
  L 827.54 526.81
  L 827.54 513.35
  Z"
/>
<path fill="#172e41" d="
  M 704.88 391.38
  L 705.36 394.28
  L 706.31 396.96
  L 707.69 399.37
  L 709.49 401.47
  L 710.84 402.63
  L 712.35 403.63
  L 714.00 404.46
  L 715.78 405.10
  L 718.15 405.49
  L 721.84 405.62
  L 738.73 405.69
  L 739.00 405.80
  L 739.11 406.07
  L 739.11 419.67
  L 738.99 420.04
  L 738.62 420.17
  L 721.37 420.32
  L 718.38 420.22
  L 715.48 419.89
  L 712.66 419.33
  L 709.95 418.54
  L 707.38 417.54
  L 704.95 416.30
  L 702.73 414.88
  L 700.66 413.25
  L 697.56 410.04
  L 694.94 406.22
  L 693.77 403.97
  L 692.81 401.69
  L 692.07 399.36
  L 691.53 397.00
  L 691.53 397.00
  L 691.53 397.00
  L 691.18 394.22
  L 691.11 391.38
  L 691.29 390.97
  L 691.71 390.80
  L 704.25 390.80
  L 704.68 390.97
  L 704.88 391.38
  Z"
/>
<path fill="#172e41" d="
  M 662.35 432.34
  L 662.35 446.22
  L 662.25 446.48
  L 661.99 446.60
  L 656.69 446.70
  L 651.99 446.50
  L 649.22 446.12
  L 646.45 445.46
  L 643.63 444.50
  L 640.88 443.28
  L 638.21 441.82
  L 635.70 440.14
  L 633.37 438.27
  L 631.27 436.25
  L 628.75 433.33
  L 626.16 429.86
  L 623.05 425.73
  L 620.70 423.32
  L 617.97 421.47
  L 615.06 420.05
  L 615.06 420.05
  L 615.06 420.05
  L 615.06 420.05
  L 612.81 419.30
  L 610.47 418.79
  L 608.03 418.51
  L 605.49 418.48
  L 587.99 418.70
  L 584.23 418.48
  L 581.49 417.85
  L 577.77 416.49
  L 576.16 415.86
  L 573.32 415.04
  L 570.74 414.73
  L 568.32 414.91
  L 566.03 415.62
  L 564.05 416.79
  L 562.25 418.51
  L 560.88 420.73
  L 559.65 423.98
  L 558.46 427.63
  L 557.57 429.78
  L 555.97 432.52
  L 554.18 435.02
  L 552.18 437.29
  L 549.99 439.31
  L 549.99 439.31
  L 549.99 439.31
  L 549.99 439.31
  L 547.88 440.89
  L 545.62 442.29
  L 543.21 443.50
  L 540.64 444.52
  L 538.23 445.22
  L 535.61 445.70
  L 532.79 445.96
  L 529.75 446.00
  L 508.15 445.91
  L 507.72 445.77
  L 507.57 445.33
  L 507.57 432.18
  L 507.71 431.74
  L 508.15 431.57
  L 516.19 431.43
  L 529.08 431.46
  L 533.66 431.25
  L 535.38 430.94
  L 536.72 430.51
  L 538.97 429.32
  L 541.15 427.66
  L 543.08 425.62
  L 543.85 424.50
  L 544.55 423.10
  L 545.79 419.26
  L 546.80 415.98
  L 547.87 413.64
  L 549.93 410.47
  L 552.24 407.73
  L 554.80 405.41
  L 557.60 403.51
  L 557.60 403.51
  L 557.60 403.51
  L 561.30 401.78
  L 565.37 400.67
  L 569.79 400.18
  L 574.57 400.31
  L 578.05 401.16
  L 584.91 403.38
  L 586.31 403.65
  L 588.47 403.78
  L 602.19 403.90
  L 610.32 404.19
  L 613.38 404.52
  L 615.77 404.97
  L 620.32 406.41
  L 624.56 408.39
  L 624.56 408.39
  L 624.56 408.39
  L 626.95 409.84
  L 629.23 411.48
  L 631.40 413.31
  L 633.46 415.34
  L 635.08 417.30
  L 637.20 420.30
  L 639.46 423.50
  L 641.20 425.56
  L 644.21 428.18
  L 647.53 430.14
  L 650.55 431.26
  L 653.91 431.93
  L 657.67 432.16
  L 661.92 431.94
  L 661.94 431.94
  L 662.23 432.05
  L 662.35 432.34
  Z"
/>
<path fill="#172e41" d="
  M 763.37 432.73
  L 764.04 431.43
  L 764.47 430.16
  L 764.67 428.91
  L 764.64 427.70
  L 764.39 426.54
  L 763.92 425.42
  L 762.33 423.24
  L 761.98 422.89
  L 761.98 422.89
  L 759.72 421.21
  L 756.98 420.03
  L 753.77 419.35
  L 750.07 419.17
  L 749.66 419.04
  L 749.52 418.63
  L 749.52 414.95
  L 749.62 414.66
  L 749.91 414.56
  L 777.87 414.56
  L 778.24 414.72
  L 778.40 415.09
  L 778.40 432.61
  L 778.27 432.94
  L 777.94 433.07
  L 763.57 433.07
  L 763.35 432.79
  L 763.37 432.73
  Z"
/>
<path fill="#172e41" d="
  M 237.98 559.71
  L 300.27 559.71
  L 300.68 559.88
  L 300.85 560.29
  L 300.85 573.98
  L 300.77 574.23
  L 300.52 574.31
  L 233.27 574.27
  L 231.09 574.12
  L 229.16 573.68
  L 227.49 572.96
  L 226.09 571.95
  L 226.09 571.95
  L 226.09 571.95
  L 224.99 570.73
  L 224.13 569.26
  L 223.63 567.76
  L 223.28 565.74
  L 223.00 560.08
  L 223.11 462.50
  L 223.09 461.82
  L 223.09 461.82
  L 222.67 458.94
  L 221.68 456.09
  L 220.11 453.26
  L 217.97 450.46
  L 216.22 448.64
  L 214.37 447.07
  L 212.40 445.74
  L 210.32 444.65
  L 210.32 444.65
  L 210.32 444.65
  L 207.36 443.58
  L 204.20 442.95
  L 200.84 442.76
  L 197.29 443.01
  L 196.70 442.84
  L 196.42 442.30
  L 196.42 442.25
  L 196.42 429.21
  L 196.55 428.82
  L 196.93 428.66
  L 202.73 428.50
  L 208.17 429.06
  L 213.25 430.32
  L 217.97 432.29
  L 217.97 432.29
  L 217.97 432.29
  L 220.09 433.48
  L 224.05 436.20
  L 227.50 439.22
  L 230.44 442.53
  L 232.87 446.14
  L 232.87 446.14
  L 234.82 450.12
  L 236.24 454.40
  L 236.80 457.47
  L 237.19 461.80
  L 237.51 474.26
  L 237.41 559.14
  L 237.55 559.52
  L 237.90 559.70
  L 237.98 559.71
  Z"
/>
<path fill="#172e41" d="
  M 697.96 445.73
  L 692.40 450.56
  L 688.88 453.88
  L 669.68 473.42
  L 667.52 475.33
  L 665.26 476.98
  L 662.90 478.36
  L 660.43 479.48
  L 656.31 480.71
  L 651.93 481.29
  L 647.72 481.10
  L 643.73 480.18
  L 639.74 478.52
  L 635.58 476.06
  L 630.53 472.39
  L 599.82 448.59
  L 596.86 446.57
  L 593.92 445.10
  L 592.13 444.51
  L 590.30 444.18
  L 588.35 444.11
  L 586.42 444.29
  L 584.54 444.74
  L 582.75 445.44
  L 581.08 446.38
  L 579.56 447.55
  L 576.89 450.39
  L 573.52 454.86
  L 570.49 458.85
  L 567.67 461.76
  L 564.69 464.32
  L 561.52 466.51
  L 558.19 468.34
  L 555.59 469.48
  L 552.90 470.41
  L 550.11 471.15
  L 547.22 471.68
  L 540.97 471.96
  L 527.24 472.04
  L 413.81 471.97
  L 378.70 471.98
  L 349.98 472.26
  L 349.54 472.09
  L 349.36 471.65
  L 349.36 471.65
  L 349.36 457.88
  L 349.44 457.68
  L 349.64 457.60
  L 540.76 457.62
  L 544.35 457.42
  L 547.69 456.81
  L 550.78 455.79
  L 553.63 454.36
  L 553.63 454.36
  L 555.57 453.04
  L 557.38 451.50
  L 559.67 448.91
  L 562.60 444.72
  L 565.79 440.20
  L 568.32 437.50
  L 571.29 435.18
  L 574.37 433.27
  L 577.56 431.77
  L 580.85 430.67
  L 580.85 430.67
  L 580.85 430.67
  L 580.85 430.67
  L 580.85 430.67
  L 584.02 430.02
  L 587.29 429.73
  L 590.65 429.79
  L 594.10 430.21
  L 597.89 431.17
  L 601.79 432.79
  L 605.77 435.05
  L 609.86 437.97
  L 628.37 452.36
  L 642.88 463.33
  L 645.47 464.99
  L 647.98 466.09
  L 650.43 466.63
  L 652.80 466.61
  L 652.80 466.61
  L 652.80 466.61
  L 652.80 466.61
  L 654.78 466.14
  L 656.71 465.26
  L 659.19 463.41
  L 662.70 460.13
  L 668.21 454.47
  L 678.16 444.51
  L 690.72 432.46
  L 691.52 431.86
  L 692.68 431.38
  L 694.02 431.21
  L 715.38 431.10
  L 738.62 431.26
  L 738.98 431.38
  L 739.10 431.75
  L 739.10 444.74
  L 738.92 445.17
  L 738.49 445.35
  L 698.97 445.35
  L 698.41 445.45
  L 697.96 445.73
  Z"
/>
<path fill="#172e41" d="
  M 762.66 459.16
  L 762.66 473.75
  L 762.35 474.67
  L 761.43 474.99
  L 718.52 474.92
  L 715.83 475.06
  L 713.00 475.52
  L 710.02 476.30
  L 706.89 477.40
  L 701.98 479.62
  L 697.47 482.22
  L 693.36 485.22
  L 689.65 488.61
  L 689.65 488.61
  L 686.56 492.11
  L 683.82 495.94
  L 681.42 500.12
  L 679.37 504.63
  L 678.19 507.99
  L 677.27 511.51
  L 676.63 515.12
  L 676.28 518.80
  L 676.24 522.34
  L 676.50 525.84
  L 677.05 529.16
  L 677.90 532.38
  L 679.06 535.56
  L 680.46 538.60
  L 682.08 541.48
  L 683.92 544.19
  L 686.01 546.77
  L 688.29 549.15
  L 690.76 551.33
  L 693.42 553.29
  L 696.52 555.17
  L 699.81 556.77
  L 703.18 558.03
  L 706.71 558.99
  L 712.01 559.66
  L 719.86 559.86
  L 776.13 559.76
  L 784.48 560.12
  L 787.78 560.56
  L 790.48 561.17
  L 794.82 562.74
  L 798.87 564.82
  L 802.67 567.44
  L 806.06 570.52
  L 808.98 573.96
  L 811.41 577.77
  L 813.27 581.79
  L 814.56 586.08
  L 815.02 588.56
  L 815.29 591.11
  L 815.35 595.11
  L 815.01 598.96
  L 814.27 602.65
  L 813.13 606.18
  L 813.13 606.18
  L 813.13 606.18
  L 811.27 610.14
  L 808.85 613.88
  L 805.59 617.69
  L 801.89 620.92
  L 801.89 620.92
  L 798.88 622.92
  L 795.64 624.61
  L 792.17 625.97
  L 788.45 627.02
  L 785.87 627.38
  L 781.68 627.63
  L 768.49 627.82
  L 715.18 627.76
  L 714.86 627.64
  L 714.75 627.32
  L 714.75 614.03
  L 714.79 613.83
  L 715.21 613.57
  L 780.76 613.56
  L 784.68 613.21
  L 788.35 612.19
  L 788.35 612.19
  L 790.28 611.32
  L 792.14 610.23
  L 795.14 607.80
  L 797.50 604.93
  L 799.35 601.53
  L 800.24 599.12
  L 800.81 596.74
  L 801.06 594.40
  L 800.99 592.09
  L 800.99 592.09
  L 800.99 592.09
  L 800.41 589.11
  L 799.27 586.19
  L 797.58 583.32
  L 795.34 580.51
  L 793.66 578.86
  L 791.81 577.45
  L 791.81 577.45
  L 789.66 576.21
  L 787.31 575.25
  L 785.68 574.83
  L 783.59 574.54
  L 778.08 574.29
  L 717.28 574.40
  L 713.03 574.29
  L 708.89 573.91
  L 704.85 573.25
  L 700.92 572.33
  L 697.12 571.14
  L 693.45 569.68
  L 689.92 567.97
  L 686.54 566.00
  L 683.84 564.18
  L 681.25 562.18
  L 678.78 560.01
  L 676.43 557.67
  L 672.15 552.58
  L 668.39 546.86
  L 665.82 541.62
  L 663.88 535.85
  L 662.64 529.79
  L 662.08 523.38
  L 662.24 516.80
  L 663.09 510.31
  L 664.65 503.93
  L 666.86 497.90
  L 669.44 492.72
  L 672.64 487.66
  L 676.45 482.71
  L 680.87 477.87
  L 683.81 475.08
  L 686.89 472.53
  L 690.11 470.22
  L 693.46 468.14
  L 693.46 468.14
  L 693.46 468.14
  L 693.46 468.14
  L 696.89 466.33
  L 700.46 464.74
  L 704.16 463.39
  L 707.99 462.26
  L 711.51 461.57
  L 716.00 461.08
  L 721.45 460.78
  L 727.86 460.69
  L 748.25 460.72
  L 748.62 460.56
  L 748.78 460.19
  L 748.78 444.76
  L 748.90 444.41
  L 749.24 444.30
  L 804.04 444.30
  L 804.51 444.50
  L 804.71 444.97
  L 804.71 457.75
  L 804.54 458.26
  L 804.02 458.43
  L 763.39 458.43
  L 762.84 458.61
  L 762.66 459.16
  Z"
/>
<path fill="#172e41" d="
  M 592.80 520.09
  L 591.61 521.32
  L 590.67 522.61
  L 589.99 523.95
  L 589.57 525.34
  L 589.57 525.34
  L 589.39 527.00
  L 589.11 567.71
  L 588.77 571.26
  L 587.81 575.00
  L 586.23 578.93
  L 584.02 583.06
  L 582.11 585.98
  L 579.99 588.65
  L 577.69 591.07
  L 575.18 593.25
  L 575.18 593.25
  L 575.18 593.25
  L 575.18 593.25
  L 572.52 595.14
  L 569.68 596.79
  L 566.64 598.20
  L 563.41 599.37
  L 560.48 600.05
  L 556.60 600.54
  L 551.76 600.84
  L 545.97 600.95
  L 354.54 601.01
  L 231.00 600.97
  L 230.33 600.96
  L 227.64 600.79
  L 225.00 600.40
  L 222.33 599.76
  L 219.73 598.91
  L 217.18 597.84
  L 214.73 596.57
  L 212.38 595.10
  L 210.16 593.46
  L 208.04 591.62
  L 206.06 589.62
  L 204.24 587.47
  L 202.58 585.19
  L 201.13 582.82
  L 199.87 580.35
  L 198.80 577.78
  L 197.94 575.12
  L 197.28 571.87
  L 196.81 567.48
  L 196.52 561.94
  L 196.41 555.25
  L 196.36 455.71
  L 196.65 455.01
  L 197.34 454.71
  L 201.75 454.81
  L 204.50 455.36
  L 206.83 456.52
  L 206.83 456.52
  L 208.37 457.87
  L 209.65 459.62
  L 210.20 460.93
  L 210.59 462.73
  L 210.89 467.78
  L 210.68 564.00
  L 210.87 567.08
  L 211.44 570.08
  L 212.37 572.95
  L 213.65 575.65
  L 215.26 578.14
  L 217.18 580.38
  L 219.32 582.28
  L 221.74 583.88
  L 223.86 584.92
  L 226.14 585.72
  L 229.88 586.33
  L 235.46 586.53
  L 553.52 586.53
  L 554.12 586.52
  L 557.27 586.17
  L 560.28 585.33
  L 563.23 584.00
  L 565.93 582.25
  L 568.48 580.03
  L 570.67 577.48
  L 572.47 574.67
  L 573.83 571.66
  L 574.42 569.55
  L 574.85 566.93
  L 575.20 560.16
  L 575.13 527.02
  L 575.23 524.81
  L 575.55 522.61
  L 576.08 520.46
  L 576.81 518.37
  L 577.72 516.41
  L 578.82 514.55
  L 580.11 512.81
  L 581.57 511.21
  L 583.40 509.57
  L 585.31 508.15
  L 587.32 506.96
  L 589.41 505.97
  L 589.41 505.97
  L 592.91 504.87
  L 596.64 504.31
  L 599.49 504.26
  L 602.27 504.51
  L 604.96 505.07
  L 607.53 505.92
  L 609.96 507.05
  L 612.22 508.44
  L 614.30 510.10
  L 616.17 512.00
  L 617.65 513.91
  L 618.92 515.99
  L 619.94 518.15
  L 620.74 520.47
  L 621.20 522.63
  L 621.53 525.46
  L 621.80 533.17
  L 621.77 559.44
  L 621.84 563.34
  L 622.09 566.71
  L 622.53 569.53
  L 623.15 571.81
  L 624.13 574.17
  L 625.30 576.33
  L 626.66 578.31
  L 628.23 580.09
  L 630.03 581.71
  L 632.04 583.12
  L 634.25 584.34
  L 636.67 585.35
  L 638.57 585.90
  L 640.77 586.29
  L 646.03 586.60
  L 779.75 586.48
  L 781.53 586.59
  L 783.09 586.91
  L 784.42 587.43
  L 785.52 588.17
  L 787.12 589.87
  L 788.12 591.69
  L 788.57 593.67
  L 788.42 595.60
  L 788.06 596.70
  L 787.50 597.71
  L 786.76 598.63
  L 785.85 599.44
  L 784.79 600.09
  L 783.59 600.59
  L 780.98 601.05
  L 774.05 601.20
  L 705.95 600.99
  L 649.34 601.11
  L 644.49 601.04
  L 640.30 600.79
  L 636.78 600.35
  L 633.93 599.73
  L 629.32 598.08
  L 625.66 596.22
  L 622.25 593.97
  L 619.12 591.37
  L 616.30 588.42
  L 613.82 585.17
  L 611.70 581.64
  L 610.00 577.95
  L 608.71 574.04
  L 608.25 571.81
  L 607.91 569.03
  L 607.63 561.85
  L 607.59 532.21
  L 607.38 527.12
  L 606.75 523.95
  L 605.90 522.29
  L 604.71 520.86
  L 603.18 519.64
  L 601.44 518.75
  L 599.62 518.24
  L 597.75 518.10
  L 595.99 518.35
  L 594.32 519.01
  L 592.80 520.09
  Z"
/>
<path fill="#172e41" d="
  M 598.50 477.91
  L 603.53 478.16
  L 606.78 478.60
  L 609.99 479.24
  L 613.12 480.09
  L 616.19 481.13
  L 619.21 482.38
  L 622.14 483.83
  L 624.97 485.45
  L 627.68 487.26
  L 630.27 489.24
  L 632.73 491.38
  L 635.04 493.68
  L 637.21 496.13
  L 639.18 498.68
  L 640.99 501.37
  L 642.63 504.19
  L 644.09 507.13
  L 646.00 512.01
  L 647.40 517.15
  L 647.87 520.30
  L 648.20 524.66
  L 648.43 537.01
  L 648.44 573.40
  L 648.28 573.92
  L 647.77 574.12
  L 645.13 574.13
  L 642.31 573.87
  L 640.86 573.54
  L 639.54 573.01
  L 637.44 571.47
  L 636.52 570.42
  L 635.76 569.23
  L 634.68 566.50
  L 634.28 563.52
  L 634.15 531.08
  L 633.83 523.16
  L 633.43 520.09
  L 632.87 517.63
  L 631.86 514.68
  L 630.62 511.87
  L 629.10 509.12
  L 627.36 506.54
  L 624.69 503.34
  L 621.67 500.49
  L 618.33 498.01
  L 614.73 495.93
  L 610.90 494.29
  L 606.86 493.10
  L 602.76 492.38
  L 598.52 492.14
  L 594.27 492.39
  L 590.17 493.11
  L 586.14 494.32
  L 582.31 495.97
  L 578.71 498.06
  L 575.38 500.54
  L 572.37 503.40
  L 569.70 506.60
  L 567.97 509.19
  L 566.46 511.94
  L 565.22 514.76
  L 564.22 517.71
  L 563.66 520.17
  L 563.27 523.24
  L 562.97 531.16
  L 562.91 563.60
  L 562.52 566.58
  L 561.45 569.32
  L 560.69 570.51
  L 559.77 571.56
  L 557.67 573.10
  L 556.36 573.64
  L 554.91 573.97
  L 552.09 574.24
  L 549.45 574.23
  L 548.94 574.03
  L 548.78 573.51
  L 548.70 537.13
  L 548.90 524.77
  L 549.22 520.41
  L 549.69 517.26
  L 551.08 512.12
  L 552.98 507.24
  L 554.43 504.29
  L 556.06 501.47
  L 557.86 498.78
  L 559.83 496.22
  L 561.99 493.76
  L 564.30 491.46
  L 566.76 489.31
  L 569.34 487.33
  L 572.05 485.51
  L 574.87 483.88
  L 577.80 482.43
  L 580.82 481.17
  L 583.88 480.12
  L 587.01 479.27
  L 590.21 478.62
  L 593.47 478.17
  L 598.50 477.91
  Z"
/>
<path fill="#172e41" d="
  M 360.96 483.78
  L 372.54 483.87
  L 379.33 484.14
  L 384.04 484.87
  L 389.68 486.70
  L 395.00 489.19
  L 399.82 492.24
  L 404.23 495.92
  L 406.87 498.65
  L 409.24 501.58
  L 411.40 504.76
  L 413.26 508.09
  L 414.85 511.61
  L 416.14 515.24
  L 417.12 518.95
  L 417.80 522.74
  L 418.16 526.57
  L 418.21 530.42
  L 417.94 534.27
  L 417.35 538.10
  L 416.45 541.83
  L 415.23 545.50
  L 413.74 548.99
  L 411.94 552.37
  L 409.10 556.61
  L 405.72 560.59
  L 401.86 564.22
  L 397.64 567.38
  L 394.50 569.28
  L 391.16 570.91
  L 387.60 572.28
  L 383.84 573.38
  L 378.86 574.15
  L 372.09 574.41
  L 360.26 574.33
  L 348.42 574.23
  L 341.66 573.86
  L 336.69 573.01
  L 332.95 571.85
  L 329.42 570.43
  L 326.10 568.74
  L 322.99 566.80
  L 318.81 563.57
  L 315.01 559.89
  L 311.70 555.85
  L 308.93 551.57
  L 307.18 548.16
  L 305.74 544.65
  L 304.58 540.96
  L 303.74 537.21
  L 303.21 533.38
  L 303.00 529.52
  L 303.11 525.67
  L 303.53 521.85
  L 304.26 518.07
  L 305.30 514.37
  L 306.65 510.76
  L 308.29 507.28
  L 310.21 503.97
  L 312.41 500.83
  L 314.83 497.94
  L 317.52 495.24
  L 321.99 491.64
  L 326.84 488.66
  L 332.20 486.25
  L 337.87 484.51
  L 342.59 483.86
  L 349.39 483.69
  L 360.96 483.78
  Z
  M 360.40 559.60
  L 376.30 559.55
  L 380.64 559.03
  L 384.73 557.84
  L 384.73 557.84
  L 387.45 556.60
  L 390.04 555.03
  L 393.27 552.55
  L 396.06 549.84
  L 398.42 546.91
  L 400.34 543.75
  L 400.34 543.75
  L 400.34 543.75
  L 400.34 543.75
  L 401.83 540.36
  L 402.88 536.75
  L 403.50 532.91
  L 403.69 528.85
  L 403.41 524.43
  L 402.64 520.30
  L 401.38 516.46
  L 399.63 512.90
  L 399.63 512.90
  L 397.75 510.11
  L 395.52 507.53
  L 392.93 505.15
  L 389.98 502.99
  L 386.71 501.10
  L 383.43 499.71
  L 380.13 498.84
  L 376.81 498.48
  L 376.81 498.48
  L 376.52 498.47
  L 360.83 498.33
  L 345.13 498.25
  L 344.85 498.26
  L 344.85 498.26
  L 341.52 498.57
  L 338.21 499.40
  L 334.91 500.74
  L 331.61 502.59
  L 328.64 504.71
  L 326.01 507.05
  L 323.74 509.60
  L 321.83 512.36
  L 321.83 512.36
  L 321.83 512.36
  L 321.83 512.36
  L 320.02 515.89
  L 318.71 519.72
  L 317.88 523.84
  L 317.55 528.25
  L 317.68 532.32
  L 318.24 536.16
  L 319.25 539.79
  L 320.69 543.19
  L 320.69 543.19
  L 320.69 543.19
  L 322.57 546.38
  L 324.89 549.35
  L 327.64 552.09
  L 330.83 554.62
  L 333.40 556.23
  L 336.10 557.50
  L 340.17 558.75
  L 344.51 559.33
  L 360.40 559.60
  Z"
/>
<path fill="#172e41" d="
  M 483.61 483.76
  L 499.03 483.72
  L 503.08 483.93
  L 506.62 484.58
  L 512.48 486.49
  L 517.83 488.94
  L 522.68 491.93
  L 527.03 495.46
  L 527.03 495.46
  L 527.03 495.46
  L 527.03 495.46
  L 527.03 495.46
  L 529.85 498.34
  L 532.41 501.51
  L 534.70 504.96
  L 536.74 508.69
  L 538.77 513.54
  L 538.77 513.54
  L 539.88 517.20
  L 540.68 520.96
  L 541.16 524.83
  L 541.33 528.81
  L 541.19 532.79
  L 540.74 536.67
  L 539.97 540.43
  L 538.89 544.09
  L 538.89 544.09
  L 538.89 544.09
  L 536.90 548.96
  L 534.89 552.71
  L 532.62 556.18
  L 530.09 559.36
  L 527.29 562.27
  L 527.29 562.27
  L 527.29 562.27
  L 527.29 562.27
  L 522.98 565.84
  L 518.15 568.87
  L 512.81 571.36
  L 506.97 573.31
  L 503.44 573.99
  L 499.39 574.24
  L 483.97 574.31
  L 468.54 574.36
  L 464.50 574.14
  L 460.96 573.49
  L 455.10 571.59
  L 449.74 569.14
  L 444.89 566.15
  L 440.55 562.61
  L 440.55 562.61
  L 440.55 562.61
  L 437.73 559.73
  L 435.17 556.56
  L 432.87 553.11
  L 430.84 549.38
  L 428.80 544.53
  L 428.80 544.53
  L 427.69 540.88
  L 426.90 537.12
  L 426.42 533.25
  L 426.24 529.27
  L 426.38 525.28
  L 426.84 521.41
  L 427.60 517.64
  L 428.68 513.98
  L 428.68 513.98
  L 430.68 509.11
  L 432.68 505.36
  L 434.95 501.90
  L 437.48 498.71
  L 440.28 495.80
  L 440.28 495.80
  L 440.28 495.80
  L 440.28 495.80
  L 440.28 495.80
  L 444.60 492.24
  L 449.43 489.21
  L 454.76 486.72
  L 460.61 484.77
  L 464.14 484.09
  L 468.18 483.84
  L 483.61 483.76
  Z
  M 440.50 528.83
  L 440.87 533.75
  L 441.97 538.48
  L 443.79 543.04
  L 446.27 547.22
  L 449.31 550.91
  L 452.89 554.06
  L 454.85 555.39
  L 456.92 556.55
  L 461.18 558.28
  L 465.10 559.17
  L 469.25 559.49
  L 483.70 559.52
  L 498.16 559.55
  L 502.30 559.25
  L 506.23 558.36
  L 510.50 556.66
  L 512.58 555.50
  L 514.54 554.18
  L 518.13 551.05
  L 521.19 547.37
  L 523.68 543.19
  L 525.52 538.65
  L 526.63 533.91
  L 527.02 529.00
  L 526.65 524.08
  L 525.55 519.35
  L 523.73 514.79
  L 521.26 510.60
  L 518.22 506.92
  L 514.64 503.77
  L 512.68 502.44
  L 510.61 501.28
  L 506.34 499.55
  L 502.42 498.65
  L 498.28 498.34
  L 483.82 498.31
  L 469.37 498.28
  L 465.22 498.58
  L 461.30 499.46
  L 457.03 501.17
  L 454.95 502.33
  L 452.99 503.65
  L 449.40 506.78
  L 446.34 510.46
  L 443.85 514.63
  L 442.01 519.18
  L 440.89 523.91
  L 440.50 528.83
  Z"
/>
<path fill="#172e41" d="
  M 689.04 525.52
  L 689.11 522.16
  L 689.48 518.89
  L 690.14 515.63
  L 691.08 512.48
  L 692.84 508.31
  L 695.09 504.41
  L 697.85 500.74
  L 701.05 497.42
  L 704.68 494.46
  L 708.67 491.93
  L 712.90 489.89
  L 717.40 488.31
  L 720.67 487.63
  L 725.06 487.15
  L 730.60 486.87
  L 737.26 486.79
  L 826.90 486.63
  L 827.30 486.80
  L 827.47 487.20
  L 827.47 500.53
  L 827.31 501.00
  L 826.84 501.16
  L 729.25 501.19
  L 725.72 501.30
  L 722.79 501.63
  L 720.23 502.21
  L 717.93 503.07
  L 714.69 504.76
  L 711.82 506.73
  L 709.33 508.97
  L 707.22 511.48
  L 707.22 511.48
  L 707.22 511.48
  L 705.30 514.60
  L 703.85 518.06
  L 702.87 521.86
  L 702.35 526.00
  L 702.24 526.26
  L 701.97 526.35
  L 689.89 526.35
  L 689.26 526.14
  L 689.04 525.52
  Z"
/>
<path fill="#eeeeee" d="
  M 360.83 498.33
  L 376.52 498.47
  L 376.81 498.48
  L 380.13 498.84
  L 383.43 499.71
  L 386.71 501.10
  L 389.98 502.99
  L 392.93 505.15
  L 395.52 507.53
  L 397.75 510.11
  L 399.63 512.90
  L 399.63 512.90
  L 399.63 512.90
  L 401.38 516.46
  L 402.64 520.30
  L 403.41 524.43
  L 403.69 528.85
  L 403.50 532.91
  L 402.88 536.75
  L 401.83 540.36
  L 400.34 543.75
  L 400.34 543.75
  L 400.34 543.75
  L 400.34 543.75
  L 398.42 546.91
  L 396.06 549.84
  L 393.27 552.55
  L 390.04 555.03
  L 387.45 556.60
  L 384.73 557.84
  L 380.64 559.03
  L 376.30 559.55
  L 360.40 559.60
  L 344.51 559.33
  L 340.17 558.75
  L 336.10 557.50
  L 333.40 556.23
  L 330.83 554.62
  L 327.64 552.09
  L 324.89 549.35
  L 322.57 546.38
  L 320.69 543.19
  L 320.69 543.19
  L 320.69 543.19
  L 319.25 539.79
  L 318.24 536.16
  L 317.68 532.32
  L 317.55 528.25
  L 317.88 523.84
  L 318.71 519.72
  L 320.02 515.89
  L 321.83 512.36
  L 321.83 512.36
  L 321.83 512.36
  L 321.83 512.36
  L 323.74 509.60
  L 326.01 507.05
  L 328.64 504.71
  L 331.61 502.59
  L 334.91 500.74
  L 338.21 499.40
  L 341.52 498.57
  L 344.85 498.26
  L 344.85 498.26
  L 345.13 498.25
  L 360.83 498.33
  Z
  M 360.55 523.96
  L 367.24 524.08
  L 369.11 524.36
  L 370.63 525.12
  L 370.63 525.12
  L 370.94 525.37
  L 372.53 526.93
  L 373.86 528.60
  L 375.01 530.43
  L 375.92 532.36
  L 376.65 534.49
  L 377.16 536.69
  L 377.49 539.09
  L 377.64 541.75
  L 377.37 547.57
  L 377.50 547.92
  L 377.85 548.04
  L 377.94 548.02
  L 381.60 546.40
  L 384.69 544.45
  L 387.21 542.15
  L 389.17 539.52
  L 390.14 537.62
  L 391.29 534.24
  L 391.85 530.82
  L 391.85 527.32
  L 391.26 523.91
  L 390.07 520.60
  L 388.32 517.51
  L 386.09 514.77
  L 383.35 512.36
  L 382.89 512.04
  L 382.89 512.04
  L 382.89 512.04
  L 381.45 511.25
  L 379.86 510.68
  L 378.13 510.34
  L 376.25 510.22
  L 360.58 510.16
  L 344.91 510.14
  L 343.03 510.25
  L 341.30 510.59
  L 339.71 511.14
  L 338.27 511.93
  L 338.27 511.93
  L 337.80 512.25
  L 335.05 514.64
  L 332.80 517.37
  L 331.03 520.46
  L 329.84 523.76
  L 329.23 527.17
  L 329.20 530.67
  L 329.75 534.09
  L 330.89 537.47
  L 331.85 539.38
  L 331.85 539.38
  L 331.85 539.38
  L 333.79 542.02
  L 336.31 544.33
  L 339.39 546.30
  L 343.03 547.93
  L 343.13 547.96
  L 343.48 547.84
  L 343.61 547.49
  L 343.36 541.67
  L 343.52 539.01
  L 343.87 536.61
  L 344.39 534.41
  L 345.13 532.28
  L 346.05 530.36
  L 347.21 528.53
  L 348.55 526.87
  L 350.15 525.32
  L 350.45 525.07
  L 351.98 524.32
  L 353.86 524.05
  L 360.55 523.96
  Z"
/>
<path fill="#eeeeee" d="
  M 483.82 498.31
  L 498.28 498.34
  L 502.42 498.65
  L 506.34 499.55
  L 510.61 501.28
  L 512.68 502.44
  L 514.64 503.77
  L 518.22 506.92
  L 521.26 510.60
  L 523.73 514.79
  L 525.55 519.35
  L 526.65 524.08
  L 527.02 529.00
  L 526.63 533.91
  L 525.52 538.65
  L 523.68 543.19
  L 521.19 547.37
  L 518.13 551.05
  L 514.54 554.18
  L 512.58 555.50
  L 510.50 556.66
  L 506.23 558.36
  L 502.30 559.25
  L 498.16 559.55
  L 483.70 559.52
  L 469.25 559.49
  L 465.10 559.17
  L 461.18 558.28
  L 456.92 556.55
  L 454.85 555.39
  L 452.89 554.06
  L 449.31 550.91
  L 446.27 547.22
  L 443.79 543.04
  L 441.97 538.48
  L 440.87 533.75
  L 440.50 528.83
  L 440.89 523.91
  L 442.01 519.18
  L 443.85 514.63
  L 446.34 510.46
  L 449.40 506.78
  L 452.99 503.65
  L 454.95 502.33
  L 457.03 501.17
  L 461.30 499.46
  L 465.22 498.58
  L 469.37 498.28
  L 483.82 498.31
  Z
  M 483.75 524.19
  L 487.20 524.24
  L 490.98 524.41
  L 492.48 524.72
  L 493.89 525.43
  L 495.25 526.51
  L 496.61 528.04
  L 497.92 529.99
  L 499.07 532.25
  L 499.96 534.56
  L 500.53 536.78
  L 500.91 539.53
  L 501.08 542.23
  L 501.03 544.85
  L 500.77 547.42
  L 500.87 547.94
  L 501.39 547.94
  L 504.46 546.66
  L 507.15 545.09
  L 509.46 543.23
  L 511.38 541.08
  L 511.38 541.08
  L 511.38 541.08
  L 511.38 541.08
  L 512.68 539.07
  L 513.72 536.87
  L 514.49 534.46
  L 515.00 531.85
  L 515.18 528.69
  L 514.87 525.53
  L 514.09 522.46
  L 512.86 519.54
  L 511.22 516.89
  L 509.20 514.52
  L 506.89 512.58
  L 504.26 511.04
  L 502.64 510.55
  L 500.25 510.34
  L 483.76 510.28
  L 467.26 510.32
  L 464.88 510.53
  L 463.26 511.01
  L 460.63 512.55
  L 458.32 514.49
  L 456.29 516.85
  L 454.65 519.51
  L 453.42 522.42
  L 452.63 525.49
  L 452.32 528.65
  L 452.49 531.81
  L 453.00 534.42
  L 453.77 536.83
  L 454.80 539.04
  L 456.11 541.05
  L 456.11 541.05
  L 456.11 541.05
  L 456.11 541.05
  L 458.02 543.20
  L 460.33 545.06
  L 463.01 546.63
  L 466.08 547.92
  L 466.60 547.92
  L 466.70 547.40
  L 466.45 544.83
  L 466.40 542.20
  L 466.57 539.51
  L 466.96 536.76
  L 467.52 534.54
  L 468.42 532.23
  L 469.58 529.97
  L 470.89 528.02
  L 472.25 526.50
  L 473.61 525.41
  L 475.02 524.71
  L 476.52 524.40
  L 480.30 524.24
  L 483.75 524.19
  Z"
/>
<path fill="#172e41" d="
  M 360.58 510.16
  L 376.25 510.22
  L 378.13 510.34
  L 379.86 510.68
  L 381.45 511.25
  L 382.89 512.04
  L 382.89 512.04
  L 382.89 512.04
  L 383.35 512.36
  L 386.09 514.77
  L 388.32 517.51
  L 390.07 520.60
  L 391.26 523.91
  L 391.85 527.32
  L 391.85 530.82
  L 391.29 534.24
  L 390.14 537.62
  L 389.17 539.52
  L 389.17 539.52
  L 389.17 539.52
  L 387.21 542.15
  L 384.69 544.45
  L 381.60 546.40
  L 377.94 548.02
  L 377.85 548.04
  L 377.50 547.92
  L 377.37 547.57
  L 377.64 541.75
  L 377.49 539.09
  L 377.16 536.69
  L 376.65 534.49
  L 375.92 532.36
  L 375.01 530.43
  L 373.86 528.60
  L 372.53 526.93
  L 370.94 525.37
  L 370.63 525.12
  L 370.63 525.12
  L 369.11 524.36
  L 367.24 524.08
  L 360.55 523.96
  L 353.86 524.05
  L 351.98 524.32
  L 350.45 525.07
  L 350.15 525.32
  L 348.55 526.87
  L 347.21 528.53
  L 346.05 530.36
  L 345.13 532.28
  L 344.39 534.41
  L 343.87 536.61
  L 343.52 539.01
  L 343.36 541.67
  L 343.61 547.49
  L 343.48 547.84
  L 343.13 547.96
  L 343.03 547.93
  L 339.39 546.30
  L 336.31 544.33
  L 333.79 542.02
  L 331.85 539.38
  L 330.89 537.47
  L 329.75 534.09
  L 329.20 530.67
  L 329.23 527.17
  L 329.84 523.76
  L 331.03 520.46
  L 332.80 517.37
  L 335.05 514.64
  L 337.80 512.25
  L 338.27 511.93
  L 338.27 511.93
  L 339.71 511.14
  L 341.30 510.59
  L 343.03 510.25
  L 344.91 510.14
  L 360.58 510.16
  Z"
/>
<path fill="#172e41" d="
  M 483.76 510.28
  L 500.25 510.34
  L 502.64 510.55
  L 504.26 511.04
  L 506.89 512.58
  L 509.20 514.52
  L 511.22 516.89
  L 512.86 519.54
  L 514.09 522.46
  L 514.87 525.53
  L 515.18 528.69
  L 515.00 531.85
  L 514.49 534.46
  L 513.72 536.87
  L 512.68 539.07
  L 511.38 541.08
  L 511.38 541.08
  L 511.38 541.08
  L 509.46 543.23
  L 507.15 545.09
  L 504.46 546.66
  L 501.39 547.94
  L 500.87 547.94
  L 500.77 547.42
  L 501.03 544.85
  L 501.08 542.23
  L 500.91 539.53
  L 500.53 536.78
  L 499.96 534.56
  L 499.07 532.25
  L 497.92 529.99
  L 496.61 528.04
  L 495.25 526.51
  L 493.89 525.43
  L 492.48 524.72
  L 490.98 524.41
  L 487.20 524.24
  L 483.75 524.19
  L 480.30 524.24
  L 476.52 524.40
  L 475.02 524.71
  L 473.61 525.41
  L 472.25 526.50
  L 470.89 528.02
  L 469.58 529.97
  L 468.42 532.23
  L 467.52 534.54
  L 466.96 536.76
  L 466.57 539.51
  L 466.40 542.20
  L 466.45 544.83
  L 466.70 547.40
  L 466.60 547.92
  L 466.08 547.92
  L 463.01 546.63
  L 460.33 545.06
  L 458.02 543.20
  L 456.11 541.05
  L 456.11 541.05
  L 456.11 541.05
  L 456.11 541.05
  L 454.80 539.04
  L 453.77 536.83
  L 453.00 534.42
  L 452.49 531.81
  L 452.32 528.65
  L 452.63 525.49
  L 453.42 522.42
  L 454.65 519.51
  L 456.29 516.85
  L 458.32 514.49
  L 460.63 512.55
  L 463.26 511.01
  L 464.88 510.53
  L 467.26 510.32
  L 483.76 510.28
  Z"
/>
<rect fill="#172e41" x="749.18" y="512.84" width="78.36" height="14.48" rx="0.51"/>
</svg>
