<?xml version="1.0" encoding="UTF-8" standalone="no"?>
<!DOCTYPE svg PUBLIC "-//W3C//DTD SVG 1.1//EN" "http://www.w3.org/Graphics/SVG/1.1/DTD/svg11.dtd">
<svg xmlns="http://www.w3.org/2000/svg" version="1.1" viewBox="0.00 0.00 1024.00 1024.00">
<path fill="#182f41" d="
  M 707.15 398.61
  L 709.47 401.39
  L 712.19 403.51
  L 712.19 403.51
  L 714.16 404.52
  L 716.30 405.25
  L 718.61 405.71
  L 721.08 405.89
  L 737.61 405.88
  L 738.12 405.98
  L 738.55 406.26
  L 738.84 406.69
  L 738.94 407.20
  L 738.94 407.20
  L 738.94 407.20
  L 738.94 418.97
  L 738.63 419.73
  L 737.87 420.05
  L 716.11 420.01
  L 714.33 419.81
  L 712.41 419.23
  L 710.29 418.50
  L 707.59 417.49
  L 704.61 415.88
  L 701.92 414.05
  L 699.51 411.97
  L 697.40 409.66
  L 697.40 409.66
  L 695.20 406.53
  L 693.44 403.05
  L 692.10 399.22
  L 691.19 395.04
  L 691.13 392.82
  L 691.37 392.06
  L 691.80 391.52
  L 691.80 391.52
  L 691.95 391.42
  L 693.16 391.01
  L 695.04 390.87
  L 702.93 390.83
  L 703.91 391.13
  L 704.53 391.95
  L 705.14 393.87
  L 706.03 396.51
  L 707.05 398.46
  L 707.15 398.61
  Z"
/>
<path fill="#182f41" d="
  M 646.52 429.74
  L 648.92 430.97
  L 651.05 431.70
  L 654.03 432.07
  L 660.74 431.95
  L 661.28 432.04
  L 661.75 432.33
  L 662.06 432.78
  L 662.18 433.32
  L 662.18 433.34
  L 662.18 445.25
  L 662.08 445.78
  L 661.78 446.24
  L 661.33 446.55
  L 660.80 446.67
  L 654.52 446.55
  L 648.06 445.88
  L 645.61 445.14
  L 641.46 443.36
  L 640.65 442.98
  L 636.36 440.41
  L 632.38 437.11
  L 628.57 432.96
  L 624.90 427.89
  L 622.40 424.81
  L 620.65 423.24
  L 618.69 421.88
  L 616.52 420.71
  L 614.16 419.75
  L 612.05 419.20
  L 609.35 418.82
  L 602.21 418.60
  L 590.13 418.75
  L 585.92 418.46
  L 584.28 418.21
  L 582.09 417.86
  L 580.38 417.35
  L 580.37 417.35
  L 579.27 416.93
  L 574.09 415.14
  L 572.16 414.75
  L 570.57 414.66
  L 567.57 415.12
  L 564.96 416.23
  L 564.96 416.23
  L 563.41 417.34
  L 562.03 418.75
  L 561.23 419.91
  L 560.45 421.47
  L 558.86 425.95
  L 558.27 427.76
  L 557.12 430.50
  L 555.63 433.06
  L 553.78 435.52
  L 551.64 437.77
  L 549.15 439.88
  L 546.45 441.72
  L 543.50 443.31
  L 540.44 444.58
  L 538.15 445.23
  L 535.47 445.68
  L 532.39 445.94
  L 528.91 446.02
  L 508.85 445.90
  L 508.05 445.56
  L 507.72 444.76
  L 507.72 433.24
  L 507.82 432.73
  L 508.11 432.29
  L 508.55 432.00
  L 509.06 431.89
  L 525.61 431.83
  L 529.27 431.81
  L 532.42 431.54
  L 535.06 431.03
  L 537.20 430.27
  L 540.15 428.51
  L 542.52 426.27
  L 542.52 426.27
  L 543.87 424.35
  L 546.61 416.95
  L 547.87 413.98
  L 549.39 411.28
  L 551.16 408.87
  L 553.19 406.74
  L 553.19 406.74
  L 553.19 406.74
  L 553.19 406.74
  L 555.90 404.59
  L 558.97 402.83
  L 562.39 401.45
  L 566.16 400.45
  L 569.58 400.02
  L 573.80 400.21
  L 578.05 401.19
  L 583.59 403.05
  L 586.25 403.75
  L 589.28 403.99
  L 603.37 404.07
  L 611.50 404.47
  L 614.70 404.92
  L 617.33 405.54
  L 620.98 406.84
  L 624.43 408.50
  L 624.43 408.50
  L 627.00 410.06
  L 629.44 411.85
  L 631.76 413.86
  L 633.96 416.09
  L 637.58 420.85
  L 640.60 424.85
  L 643.56 427.73
  L 646.52 429.74
  Z"
/>
<path fill="#182f41" d="
  M 764.60 428.21
  L 764.29 426.57
  L 763.71 425.07
  L 763.71 425.07
  L 763.71 425.07
  L 762.92 423.80
  L 761.89 422.64
  L 758.98 420.82
  L 757.33 420.12
  L 755.76 419.81
  L 753.01 419.49
  L 750.75 418.98
  L 750.72 418.97
  L 750.00 418.57
  L 749.49 417.93
  L 749.28 417.13
  L 749.38 416.32
  L 749.82 415.42
  L 750.45 414.78
  L 751.26 414.40
  L 752.26 414.27
  L 776.51 414.12
  L 777.16 414.24
  L 777.72 414.59
  L 778.10 415.14
  L 778.24 415.79
  L 778.24 415.81
  L 778.24 431.90
  L 777.94 432.64
  L 777.20 432.94
  L 765.13 432.94
  L 764.34 432.67
  L 764.12 431.86
  L 764.37 430.27
  L 764.60 428.21
  Z"
/>
<path fill="#182f41" d="
  M 238.01 559.54
  L 238.92 559.92
  L 299.35 559.92
  L 299.96 560.04
  L 300.48 560.39
  L 300.83 560.90
  L 300.95 561.51
  L 300.95 573.20
  L 300.66 573.91
  L 299.95 574.20
  L 233.25 574.15
  L 230.48 573.98
  L 228.57 573.38
  L 226.53 571.99
  L 224.94 570.28
  L 223.94 568.55
  L 223.26 565.98
  L 223.03 562.28
  L 223.05 462.00
  L 222.86 459.72
  L 222.27 457.43
  L 221.30 455.13
  L 219.94 452.81
  L 218.44 450.78
  L 216.80 448.97
  L 215.02 447.38
  L 213.10 446.02
  L 213.10 446.02
  L 213.10 446.02
  L 210.28 444.52
  L 207.21 443.42
  L 204.23 442.91
  L 200.00 442.76
  L 198.28 442.73
  L 197.48 442.54
  L 196.80 442.07
  L 196.36 441.38
  L 196.20 440.57
  L 196.20 430.11
  L 196.33 429.44
  L 196.70 428.86
  L 197.26 428.47
  L 197.93 428.31
  L 202.91 428.37
  L 207.66 428.94
  L 212.18 430.04
  L 216.47 431.65
  L 216.47 431.65
  L 216.47 431.65
  L 219.26 433.05
  L 221.94 434.69
  L 224.51 436.57
  L 226.98 438.69
  L 229.02 440.79
  L 230.88 443.09
  L 232.52 445.58
  L 233.94 448.21
  L 235.11 450.93
  L 236.04 453.75
  L 236.71 456.65
  L 237.12 459.60
  L 237.16 460.06
  L 237.58 466.81
  L 237.45 549.25
  L 237.48 558.27
  L 237.66 559.00
  L 238.01 559.54
  Z"
/>
<path fill="#182f41" d="
  M 680.42 462.43
  L 675.28 467.89
  L 670.70 472.46
  L 667.19 475.47
  L 663.55 477.84
  L 659.79 479.58
  L 655.90 480.69
  L 655.90 480.69
  L 655.90 480.69
  L 651.99 481.16
  L 647.96 481.03
  L 647.81 481.01
  L 647.81 481.01
  L 645.67 480.66
  L 643.57 480.08
  L 641.49 479.28
  L 639.43 478.25
  L 635.49 475.87
  L 631.83 473.25
  L 599.77 448.47
  L 596.51 446.29
  L 593.33 444.83
  L 590.23 444.09
  L 587.22 444.07
  L 587.22 444.07
  L 585.13 444.49
  L 583.08 445.28
  L 581.07 446.43
  L 579.11 447.95
  L 577.01 450.10
  L 574.86 452.92
  L 570.92 458.18
  L 568.76 460.64
  L 566.45 462.87
  L 564.00 464.85
  L 561.40 466.59
  L 561.40 466.59
  L 561.40 466.59
  L 558.49 468.17
  L 555.42 469.48
  L 552.19 470.53
  L 548.80 471.30
  L 544.20 471.91
  L 539.62 472.05
  L 535.87 471.97
  L 351.05 471.95
  L 350.26 471.84
  L 349.69 471.50
  L 349.69 471.50
  L 349.35 470.93
  L 349.24 470.14
  L 349.24 459.73
  L 349.24 459.73
  L 349.41 458.89
  L 349.88 458.19
  L 350.59 457.72
  L 351.42 457.56
  L 402.25 457.29
  L 422.25 457.25
  L 496.40 457.37
  L 514.09 457.51
  L 531.80 457.63
  L 542.14 457.41
  L 545.50 457.16
  L 547.65 456.80
  L 549.86 456.10
  L 551.95 455.18
  L 554.52 453.65
  L 556.89 451.76
  L 559.08 449.49
  L 561.08 446.85
  L 565.16 441.11
  L 567.51 438.29
  L 569.99 436.06
  L 572.18 434.53
  L 574.43 433.21
  L 576.76 432.10
  L 579.15 431.20
  L 579.15 431.20
  L 579.15 431.20
  L 579.15 431.20
  L 583.90 430.07
  L 588.89 429.70
  L 589.73 429.72
  L 589.73 429.72
  L 592.60 429.97
  L 595.47 430.54
  L 598.33 431.42
  L 601.17 432.62
  L 606.25 435.37
  L 610.97 438.60
  L 610.97 438.60
  L 611.99 439.40
  L 632.84 455.91
  L 639.77 461.16
  L 644.36 464.41
  L 646.84 465.70
  L 649.40 466.37
  L 649.40 466.37
  L 652.35 466.40
  L 655.41 465.68
  L 656.88 464.94
  L 658.69 463.64
  L 663.38 459.36
  L 682.39 440.14
  L 689.39 433.62
  L 690.77 432.60
  L 692.26 431.93
  L 692.26 431.93
  L 693.04 431.72
  L 697.25 431.11
  L 736.91 430.97
  L 737.69 431.11
  L 738.36 431.54
  L 738.82 432.20
  L 738.98 432.98
  L 738.98 432.98
  L 738.98 433.00
  L 738.98 443.93
  L 738.60 444.84
  L 737.69 445.22
  L 699.75 445.15
  L 698.85 445.28
  L 697.91 445.67
  L 695.91 447.25
  L 694.27 448.91
  L 685.21 457.61
  L 680.42 462.43
  Z"
/>
<path fill="#182f41" d="
  M 763.51 458.77
  L 762.90 459.27
  L 762.67 460.03
  L 762.67 473.63
  L 762.30 474.52
  L 761.41 474.89
  L 719.08 475.00
  L 716.19 475.16
  L 713.35 475.54
  L 713.35 475.54
  L 709.09 476.54
  L 704.91 478.06
  L 700.83 480.09
  L 696.84 482.64
  L 691.87 486.59
  L 687.57 490.88
  L 683.96 495.51
  L 681.02 500.49
  L 681.02 500.49
  L 681.02 500.49
  L 678.88 505.50
  L 677.34 510.81
  L 676.41 516.43
  L 676.08 522.36
  L 676.20 524.81
  L 676.59 527.47
  L 677.24 530.35
  L 678.15 533.44
  L 679.66 537.28
  L 681.57 540.88
  L 681.57 540.88
  L 683.11 543.19
  L 685.33 546.01
  L 687.73 548.58
  L 690.30 550.91
  L 693.04 552.98
  L 693.04 552.98
  L 695.85 554.75
  L 698.82 556.29
  L 701.96 557.59
  L 705.25 558.66
  L 707.84 559.24
  L 710.92 559.66
  L 718.53 560.01
  L 778.02 559.99
  L 785.52 560.31
  L 788.46 560.72
  L 790.86 561.28
  L 794.60 562.65
  L 798.19 564.45
  L 801.57 566.64
  L 804.68 569.19
  L 807.44 572.02
  L 809.83 575.13
  L 811.77 578.41
  L 813.27 581.89
  L 814.31 585.31
  L 815.01 588.70
  L 815.36 592.08
  L 815.37 595.45
  L 815.05 598.67
  L 814.41 601.87
  L 813.45 605.05
  L 812.17 608.22
  L 810.48 611.45
  L 808.46 614.44
  L 805.88 617.41
  L 802.91 620.09
  L 799.54 622.47
  L 795.79 624.55
  L 793.08 625.63
  L 789.63 626.55
  L 788.26 626.86
  L 784.88 627.56
  L 782.35 627.86
  L 781.09 627.90
  L 716.24 627.88
  L 715.72 627.78
  L 715.29 627.48
  L 714.99 627.05
  L 714.89 626.53
  L 714.89 615.35
  L 715.01 614.76
  L 715.34 614.27
  L 715.83 613.94
  L 716.42 613.82
  L 772.11 613.54
  L 781.74 613.27
  L 784.86 613.01
  L 786.85 612.66
  L 788.98 611.94
  L 790.97 610.97
  L 790.97 610.97
  L 793.26 609.44
  L 795.33 607.54
  L 797.20 605.26
  L 798.86 602.62
  L 799.88 600.44
  L 800.58 598.21
  L 800.96 596.04
  L 801.07 593.85
  L 800.92 591.68
  L 800.52 589.53
  L 799.85 587.39
  L 798.93 585.33
  L 797.76 583.37
  L 796.36 581.53
  L 794.81 579.89
  L 793.12 578.44
  L 793.12 578.44
  L 790.58 576.75
  L 787.76 575.40
  L 785.92 574.84
  L 783.62 574.44
  L 777.62 574.13
  L 718.25 574.31
  L 714.33 574.27
  L 710.52 574.02
  L 706.83 573.55
  L 703.25 572.88
  L 699.78 571.99
  L 696.43 570.88
  L 693.19 569.57
  L 690.06 568.04
  L 690.06 568.04
  L 685.41 565.24
  L 681.03 561.92
  L 677.78 558.96
  L 674.82 555.82
  L 672.15 552.50
  L 669.76 549.00
  L 668.36 546.60
  L 666.57 543.02
  L 665.08 539.34
  L 665.08 539.34
  L 665.08 539.34
  L 663.53 534.18
  L 662.52 528.82
  L 662.06 523.27
  L 662.15 517.52
  L 662.64 512.66
  L 663.50 507.94
  L 664.73 503.38
  L 666.32 498.97
  L 666.32 498.97
  L 666.32 498.97
  L 668.50 494.29
  L 671.12 489.80
  L 674.83 484.54
  L 678.79 479.85
  L 683.14 475.57
  L 687.74 471.83
  L 691.73 469.15
  L 695.99 466.73
  L 699.55 465.06
  L 703.21 463.67
  L 703.21 463.67
  L 703.21 463.67
  L 707.20 462.50
  L 711.29 461.65
  L 715.50 461.11
  L 719.81 460.90
  L 746.37 460.70
  L 747.46 460.55
  L 748.25 460.08
  L 748.71 459.30
  L 748.87 458.21
  L 748.87 446.01
  L 749.01 445.28
  L 749.43 444.66
  L 750.04 444.25
  L 750.77 444.10
  L 802.84 444.10
  L 802.84 444.10
  L 803.58 444.25
  L 804.20 444.67
  L 804.62 445.30
  L 804.77 446.04
  L 804.77 456.78
  L 804.77 456.82
  L 804.62 457.47
  L 804.23 458.01
  L 803.67 458.35
  L 803.01 458.45
  L 799.00 458.28
  L 765.31 458.36
  L 763.51 458.77
  Z"
/>
<path fill="#182f41" d="
  M 632.40 583.32
  L 635.42 584.91
  L 638.52 585.85
  L 641.14 586.14
  L 645.03 586.24
  L 780.26 586.10
  L 781.10 586.15
  L 781.10 586.15
  L 782.51 586.47
  L 783.89 587.08
  L 785.23 587.99
  L 786.53 589.20
  L 787.53 590.50
  L 788.19 591.91
  L 788.47 593.18
  L 788.44 595.56
  L 787.75 597.56
  L 787.60 597.81
  L 787.09 598.49
  L 785.58 599.72
  L 783.58 600.52
  L 781.19 600.95
  L 778.53 601.09
  L 641.51 600.94
  L 639.22 600.75
  L 635.94 600.15
  L 633.13 599.43
  L 630.59 598.52
  L 626.48 596.54
  L 622.75 594.23
  L 619.41 591.58
  L 616.45 588.59
  L 616.45 588.59
  L 616.45 588.59
  L 616.45 588.59
  L 614.18 585.68
  L 612.20 582.51
  L 610.52 579.08
  L 609.14 575.39
  L 608.34 572.00
  L 607.95 568.15
  L 607.64 560.75
  L 607.71 542.46
  L 607.55 527.53
  L 607.35 525.82
  L 606.83 524.18
  L 605.98 522.56
  L 604.84 521.12
  L 603.47 519.90
  L 601.90 518.93
  L 600.27 518.31
  L 598.53 517.99
  L 596.54 518.10
  L 594.91 518.64
  L 593.36 519.59
  L 591.76 521.07
  L 590.55 522.77
  L 590.55 522.77
  L 589.54 525.33
  L 589.19 528.26
  L 589.09 563.51
  L 588.94 567.96
  L 588.41 572.00
  L 587.36 576.02
  L 585.70 580.00
  L 583.37 584.14
  L 580.72 587.82
  L 577.73 591.06
  L 574.41 593.84
  L 571.72 595.63
  L 568.84 597.17
  L 565.77 598.46
  L 562.52 599.49
  L 559.45 600.12
  L 555.57 600.57
  L 550.87 600.84
  L 545.36 600.93
  L 231.50 600.91
  L 225.46 600.31
  L 222.35 599.69
  L 219.62 598.77
  L 215.29 596.69
  L 211.39 594.25
  L 207.92 591.45
  L 204.89 588.28
  L 204.89 588.28
  L 204.89 588.28
  L 202.58 585.20
  L 200.61 581.84
  L 198.98 578.19
  L 197.68 574.27
  L 197.04 571.24
  L 196.58 567.37
  L 196.31 562.65
  L 196.21 557.09
  L 196.09 457.05
  L 196.25 455.94
  L 196.73 455.15
  L 196.73 455.15
  L 196.73 455.15
  L 197.25 454.80
  L 197.93 454.61
  L 200.58 454.63
  L 202.42 454.81
  L 204.10 455.20
  L 205.61 455.82
  L 206.96 456.65
  L 206.96 456.65
  L 208.46 458.07
  L 209.69 459.85
  L 210.28 461.21
  L 210.70 462.87
  L 211.02 467.05
  L 210.82 526.45
  L 210.98 565.01
  L 211.19 568.12
  L 211.75 571.03
  L 212.65 573.74
  L 213.89 576.24
  L 213.89 576.24
  L 213.89 576.24
  L 213.89 576.24
  L 213.89 576.24
  L 215.35 578.39
  L 217.11 580.36
  L 219.17 582.15
  L 221.53 583.77
  L 223.33 584.72
  L 225.20 585.43
  L 225.20 585.43
  L 227.46 585.92
  L 229.81 586.09
  L 553.25 586.23
  L 557.58 585.95
  L 559.43 585.54
  L 561.06 584.95
  L 563.57 583.72
  L 565.84 582.28
  L 567.87 580.64
  L 569.67 578.79
  L 569.67 578.79
  L 571.97 575.54
  L 573.72 571.81
  L 574.31 569.74
  L 574.72 567.17
  L 575.06 560.56
  L 575.14 525.94
  L 575.37 523.23
  L 575.99 520.51
  L 577.00 517.80
  L 578.40 515.08
  L 580.43 512.23
  L 580.43 512.23
  L 583.06 509.67
  L 586.22 507.55
  L 590.39 505.61
  L 594.56 504.41
  L 598.57 503.99
  L 602.41 504.34
  L 604.85 504.93
  L 607.18 505.74
  L 609.38 506.75
  L 611.45 507.95
  L 613.37 509.35
  L 615.13 510.93
  L 616.72 512.67
  L 618.11 514.58
  L 620.04 518.22
  L 621.31 522.26
  L 621.77 526.03
  L 621.93 531.78
  L 621.90 566.00
  L 622.01 568.00
  L 622.35 569.72
  L 623.09 571.93
  L 624.00 574.01
  L 625.08 575.96
  L 626.33 577.78
  L 626.33 577.78
  L 626.33 577.78
  L 626.33 577.78
  L 629.08 580.77
  L 632.40 583.32
  Z"
/>
<path fill="#182f41" d="
  M 632.76 516.47
  L 631.62 513.57
  L 630.28 510.84
  L 628.73 508.26
  L 626.98 505.84
  L 626.98 505.84
  L 626.98 505.84
  L 626.98 505.84
  L 625.16 503.73
  L 623.17 501.76
  L 621.00 499.93
  L 618.65 498.24
  L 614.56 495.87
  L 610.27 494.07
  L 610.27 494.07
  L 605.19 492.72
  L 599.86 492.11
  L 596.53 492.10
  L 593.29 492.37
  L 590.15 492.94
  L 587.11 493.79
  L 587.11 493.79
  L 583.04 495.44
  L 579.15 497.64
  L 575.45 500.40
  L 571.93 503.71
  L 569.69 506.31
  L 567.78 509.11
  L 567.78 509.11
  L 567.78 509.11
  L 565.70 513.21
  L 564.21 517.67
  L 563.31 522.48
  L 563.00 527.65
  L 563.03 559.17
  L 562.97 562.43
  L 562.71 565.18
  L 562.26 567.42
  L 561.62 569.14
  L 560.50 570.89
  L 559.10 572.26
  L 559.10 572.26
  L 557.27 573.32
  L 555.11 573.95
  L 552.62 574.14
  L 549.80 573.91
  L 549.21 573.58
  L 548.98 572.96
  L 548.89 524.13
  L 548.89 524.11
  L 549.27 519.20
  L 550.29 514.29
  L 551.95 509.38
  L 554.26 504.49
  L 556.73 500.33
  L 559.49 496.50
  L 562.54 493.01
  L 565.87 489.86
  L 565.87 489.86
  L 569.16 487.29
  L 572.68 484.99
  L 576.43 482.98
  L 580.43 481.24
  L 586.00 479.44
  L 591.66 478.32
  L 595.80 477.94
  L 599.98 477.92
  L 604.11 478.24
  L 608.17 478.90
  L 612.10 479.87
  L 615.97 481.17
  L 619.77 482.80
  L 623.51 484.75
  L 627.64 487.35
  L 631.42 490.24
  L 634.85 493.41
  L 637.94 496.86
  L 637.94 496.86
  L 639.15 498.42
  L 640.96 501.03
  L 642.58 503.72
  L 644.00 506.49
  L 645.22 509.33
  L 646.84 514.33
  L 647.39 517.20
  L 647.79 521.01
  L 648.10 531.45
  L 648.31 573.15
  L 648.15 573.62
  L 647.72 573.87
  L 645.06 574.11
  L 642.70 573.93
  L 640.56 573.32
  L 638.73 572.33
  L 637.63 571.41
  L 636.68 570.33
  L 635.22 567.72
  L 634.31 564.46
  L 634.02 560.78
  L 634.08 525.09
  L 633.76 520.54
  L 632.76 516.47
  Z"
/>
<path fill="#182f41" d="
  M 361.04 483.98
  L 373.35 484.06
  L 380.47 484.33
  L 383.26 484.72
  L 385.54 485.27
  L 389.46 486.61
  L 392.97 488.07
  L 396.07 489.63
  L 398.76 491.30
  L 402.43 494.13
  L 405.74 497.25
  L 408.73 500.71
  L 411.33 504.43
  L 413.25 507.81
  L 414.86 511.35
  L 416.16 515.02
  L 417.14 518.80
  L 417.80 522.68
  L 418.13 526.65
  L 418.13 530.68
  L 417.79 534.75
  L 416.83 540.01
  L 415.30 545.03
  L 413.20 549.88
  L 410.57 554.41
  L 407.97 557.95
  L 405.04 561.22
  L 401.80 564.21
  L 398.28 566.88
  L 394.51 569.20
  L 390.49 571.17
  L 386.33 572.74
  L 381.98 573.93
  L 379.74 574.23
  L 376.50 574.35
  L 371.60 574.37
  L 360.14 574.32
  L 346.96 574.10
  L 343.78 574.03
  L 340.55 573.85
  L 338.32 573.50
  L 333.99 572.22
  L 329.87 570.57
  L 325.89 568.52
  L 322.16 566.12
  L 318.69 563.38
  L 315.51 560.34
  L 312.65 557.01
  L 310.12 553.41
  L 307.58 548.83
  L 305.57 543.95
  L 304.14 538.89
  L 303.29 533.62
  L 303.03 529.54
  L 303.11 525.51
  L 303.52 521.55
  L 304.26 517.68
  L 305.31 513.92
  L 306.68 510.28
  L 308.36 506.77
  L 310.34 503.43
  L 313.02 499.76
  L 316.08 496.36
  L 319.45 493.31
  L 323.17 490.55
  L 325.90 488.93
  L 329.03 487.43
  L 332.57 486.05
  L 336.51 484.78
  L 338.80 484.28
  L 341.60 483.95
  L 348.72 483.82
  L 361.04 483.98
  Z
  M 383.43 558.29
  L 385.34 557.60
  L 388.63 555.80
  L 391.65 553.69
  L 394.44 551.25
  L 396.92 548.55
  L 399.05 545.62
  L 400.83 542.47
  L 402.22 539.15
  L 403.23 535.68
  L 403.76 532.56
  L 403.98 529.37
  L 403.87 526.22
  L 403.44 523.03
  L 402.85 520.43
  L 402.06 517.93
  L 401.08 515.56
  L 399.90 513.29
  L 399.90 513.29
  L 397.81 510.17
  L 395.29 507.29
  L 392.35 504.66
  L 388.99 502.27
  L 387.23 501.26
  L 387.23 501.26
  L 384.39 499.99
  L 381.36 499.06
  L 378.16 498.48
  L 374.77 498.25
  L 357.05 498.13
  L 346.25 498.36
  L 340.50 498.90
  L 335.77 500.32
  L 333.55 501.28
  L 331.45 502.43
  L 328.31 504.60
  L 325.43 507.21
  L 323.38 509.57
  L 321.69 512.06
  L 320.51 514.27
  L 319.55 516.55
  L 318.77 519.00
  L 318.21 521.52
  L 317.82 524.27
  L 317.64 527.08
  L 317.86 533.21
  L 318.31 536.26
  L 319.09 539.20
  L 320.88 543.41
  L 323.41 547.38
  L 325.79 550.23
  L 328.36 552.71
  L 331.12 554.82
  L 334.07 556.57
  L 334.07 556.57
  L 337.32 557.98
  L 340.76 559.00
  L 344.41 559.62
  L 348.26 559.85
  L 366.47 559.94
  L 375.73 559.80
  L 376.27 559.77
  L 379.87 559.26
  L 383.43 558.29
  Z"
/>
<path fill="#182f41" d="
  M 483.77 574.37
  L 472.32 574.30
  L 467.42 574.23
  L 464.18 574.08
  L 461.94 573.76
  L 457.61 572.52
  L 453.47 570.91
  L 449.47 568.90
  L 445.73 566.54
  L 442.23 563.83
  L 439.03 560.82
  L 436.14 557.51
  L 433.58 553.95
  L 430.99 549.39
  L 428.94 544.53
  L 427.46 539.49
  L 426.56 534.22
  L 426.26 530.15
  L 426.31 526.12
  L 426.68 522.16
  L 427.38 518.29
  L 428.40 514.52
  L 429.73 510.86
  L 431.38 507.34
  L 433.33 503.98
  L 435.96 500.29
  L 438.99 496.86
  L 442.33 493.78
  L 446.03 490.99
  L 448.74 489.35
  L 451.86 487.82
  L 455.38 486.41
  L 459.31 485.10
  L 461.59 484.57
  L 464.39 484.22
  L 471.50 484.02
  L 483.81 484.06
  L 496.13 484.04
  L 503.24 484.24
  L 506.03 484.60
  L 508.32 485.13
  L 512.24 486.43
  L 515.77 487.85
  L 518.88 489.39
  L 521.59 491.03
  L 525.29 493.82
  L 528.62 496.91
  L 531.65 500.34
  L 534.28 504.03
  L 536.22 507.40
  L 537.87 510.92
  L 539.20 514.57
  L 540.21 518.35
  L 540.91 522.22
  L 541.28 526.18
  L 541.32 530.20
  L 541.02 534.28
  L 540.11 539.55
  L 538.63 544.58
  L 536.57 549.44
  L 533.98 554.00
  L 531.42 557.56
  L 528.52 560.86
  L 525.32 563.87
  L 521.82 566.57
  L 518.07 568.93
  L 514.07 570.94
  L 509.93 572.54
  L 505.59 573.78
  L 503.36 574.10
  L 500.12 574.25
  L 496.94 574.29
  L 483.77 574.37
  Z
  M 483.75 498.07
  L 468.07 498.20
  L 465.28 498.50
  L 462.46 499.13
  L 459.62 500.09
  L 456.76 501.38
  L 453.36 503.39
  L 450.30 505.80
  L 448.24 507.85
  L 446.40 510.07
  L 444.78 512.47
  L 443.40 515.01
  L 442.26 517.69
  L 441.38 520.48
  L 440.77 523.37
  L 440.43 526.34
  L 440.36 529.31
  L 440.52 532.21
  L 440.93 535.02
  L 441.57 537.74
  L 442.45 540.40
  L 443.55 542.94
  L 444.88 545.35
  L 446.42 547.62
  L 449.58 551.19
  L 453.34 554.25
  L 457.56 556.70
  L 462.30 558.57
  L 464.30 559.06
  L 466.74 559.42
  L 472.96 559.76
  L 483.73 559.78
  L 494.51 559.76
  L 500.73 559.43
  L 503.17 559.07
  L 505.17 558.58
  L 509.90 556.72
  L 514.13 554.26
  L 517.89 551.21
  L 521.05 547.64
  L 522.59 545.37
  L 523.92 542.96
  L 525.03 540.43
  L 525.91 537.77
  L 526.55 535.05
  L 526.96 532.24
  L 527.13 529.34
  L 527.05 526.37
  L 526.72 523.39
  L 526.11 520.50
  L 525.23 517.71
  L 524.09 515.03
  L 522.72 512.49
  L 521.10 510.10
  L 519.26 507.87
  L 517.20 505.82
  L 514.14 503.41
  L 510.74 501.40
  L 507.88 500.11
  L 505.04 499.15
  L 502.23 498.51
  L 499.44 498.21
  L 483.75 498.07
  Z"
/>
<path fill="#182f41" d="
  M 827.58 488.32
  L 827.58 500.11
  L 827.49 500.52
  L 827.13 500.92
  L 826.62 501.07
  L 730.83 501.08
  L 724.30 501.41
  L 721.76 501.82
  L 719.70 502.38
  L 716.54 503.72
  L 713.63 505.43
  L 713.63 505.43
  L 713.63 505.43
  L 713.63 505.43
  L 711.45 507.07
  L 709.43 508.96
  L 707.58 511.07
  L 705.88 513.43
  L 704.40 516.16
  L 703.44 519.00
  L 702.81 522.14
  L 702.48 525.17
  L 702.17 525.83
  L 701.50 526.10
  L 691.43 526.10
  L 690.30 525.94
  L 689.51 525.45
  L 689.51 525.45
  L 689.07 524.63
  L 688.97 523.49
  L 689.52 518.30
  L 690.48 514.21
  L 692.31 509.51
  L 694.55 505.23
  L 697.21 501.38
  L 700.28 497.95
  L 700.28 497.95
  L 703.70 495.01
  L 707.52 492.47
  L 711.73 490.34
  L 716.35 488.62
  L 719.02 487.91
  L 721.90 487.38
  L 724.97 487.04
  L 728.25 486.90
  L 812.09 486.78
  L 825.35 486.23
  L 826.18 486.34
  L 826.89 486.77
  L 827.39 487.44
  L 827.58 488.25
  L 827.58 488.25
  L 827.58 488.32
  Z"
/>
<path fill="#182f41" d="
  M 368.75 524.15
  L 359.04 523.89
  L 352.63 524.16
  L 351.62 524.41
  L 350.60 524.94
  L 348.51 526.80
  L 346.77 529.15
  L 345.21 532.04
  L 344.26 534.81
  L 343.84 537.94
  L 343.73 542.77
  L 343.92 546.57
  L 343.90 546.94
  L 343.66 547.47
  L 343.21 547.83
  L 342.64 547.95
  L 342.08 547.80
  L 338.47 545.68
  L 335.59 543.51
  L 333.32 541.20
  L 331.57 538.69
  L 330.75 537.04
  L 330.08 535.24
  L 330.07 535.20
  L 329.37 532.16
  L 329.12 529.10
  L 329.32 525.97
  L 329.97 522.92
  L 331.05 520.07
  L 332.54 517.42
  L 334.37 515.11
  L 336.57 513.08
  L 338.76 511.61
  L 341.20 510.43
  L 343.25 510.03
  L 346.75 509.91
  L 377.00 509.96
  L 379.19 510.25
  L 381.42 511.15
  L 383.68 512.65
  L 385.98 514.76
  L 387.80 516.91
  L 389.31 519.22
  L 390.50 521.66
  L 391.36 524.21
  L 391.88 526.87
  L 392.04 529.57
  L 391.84 532.17
  L 391.28 534.74
  L 390.24 537.46
  L 388.76 540.07
  L 387.34 541.92
  L 385.73 543.57
  L 385.73 543.57
  L 385.73 543.57
  L 384.16 544.84
  L 382.44 545.95
  L 380.57 546.90
  L 378.56 547.68
  L 378.34 547.72
  L 377.63 547.42
  L 377.44 546.68
  L 377.55 546.10
  L 377.55 546.10
  L 377.88 543.31
  L 377.87 540.47
  L 377.54 537.56
  L 376.88 534.60
  L 376.21 532.62
  L 375.33 530.76
  L 375.33 530.76
  L 374.24 529.02
  L 372.94 527.39
  L 371.42 525.88
  L 369.70 524.48
  L 369.19 524.23
  L 368.75 524.15
  Z"
/>
<path fill="#182f41" d="
  M 483.87 510.06
  L 498.56 510.11
  L 501.07 510.28
  L 503.40 510.83
  L 505.51 511.72
  L 507.44 512.90
  L 509.25 514.43
  L 510.84 516.21
  L 512.28 518.32
  L 513.47 520.62
  L 514.41 523.16
  L 515.07 525.79
  L 515.35 527.86
  L 515.39 529.92
  L 515.39 529.92
  L 515.39 529.92
  L 515.39 529.92
  L 515.21 531.94
  L 514.81 533.94
  L 514.18 535.94
  L 513.33 537.93
  L 511.73 540.61
  L 511.73 540.61
  L 509.83 542.84
  L 507.53 544.78
  L 504.85 546.43
  L 501.78 547.81
  L 501.06 547.85
  L 500.73 547.48
  L 500.67 547.01
  L 501.05 544.22
  L 501.13 541.43
  L 501.13 541.43
  L 501.13 541.43
  L 500.62 536.96
  L 499.32 532.52
  L 498.40 530.53
  L 497.24 528.73
  L 497.24 528.73
  L 495.66 526.93
  L 493.77 525.36
  L 493.56 525.21
  L 492.29 524.57
  L 490.68 524.17
  L 486.14 524.04
  L 483.80 524.07
  L 481.47 524.02
  L 476.92 524.11
  L 475.32 524.50
  L 474.03 525.12
  L 473.82 525.27
  L 471.92 526.82
  L 470.32 528.61
  L 470.32 528.61
  L 469.14 530.40
  L 468.21 532.38
  L 466.87 536.81
  L 466.32 541.27
  L 466.37 544.06
  L 466.73 546.86
  L 466.66 547.33
  L 466.33 547.69
  L 465.61 547.65
  L 462.55 546.24
  L 459.88 544.56
  L 457.61 542.60
  L 455.73 540.36
  L 454.15 537.66
  L 453.32 535.67
  L 452.71 533.66
  L 452.32 531.65
  L 452.16 529.64
  L 452.16 529.64
  L 452.22 527.58
  L 452.52 525.51
  L 453.20 522.88
  L 454.17 520.35
  L 455.38 518.07
  L 456.84 515.97
  L 458.45 514.20
  L 460.27 512.69
  L 462.21 511.52
  L 464.32 510.65
  L 466.66 510.12
  L 469.17 509.98
  L 483.87 510.06
  Z"
/>
<rect fill="#182f41" x="-39.27" y="-7.11" transform="translate(788.34,520.03) rotate(-0.1)" width="78.54" height="14.22" rx="1.93"/>
</svg>
