<?xml version='1.0' encoding='utf-8'?>
<svg xmlns="http://www.w3.org/2000/svg" width="795px" height="900px" clip-rule="evenodd" fill-rule="evenodd" image-rendering="optimizeQuality" shape-rendering="geometricPrecision" text-rendering="geometricPrecision" version="1.1" viewBox="0 0 678 767"> <defs> <style type="text/css">  .str5 {stroke:black;stroke-width:1.2644;stroke-linecap:round;stroke-linejoin:round} .str3 {stroke:black;stroke-width:2.02304;stroke-linecap:round;stroke-linejoin:round} .str1 {stroke:black;stroke-width:2.52881;stroke-linecap:round;stroke-linejoin:round} .str0 {stroke:#2D5441;stroke-width:2.52881;stroke-linecap:round;stroke-linejoin:round} .str2 {stroke:black;stroke-width:3.79321;stroke-linecap:round;stroke-linejoin:round} .str4 {stroke:#FF7866;stroke-width:5.05761;stroke-linecap:round;stroke-linejoin:round;stroke-dasharray:5.057612 15.172837} .fil2 {fill:none} .fil4 {fill:black} .fil5 {fill:#2D5441} .fil1 {fill:#339966} .fil9 {fill:#66C477} .fil8 {fill:#68BA77} .fil3 {fill:#85592D} .fil11 {fill:#E85D4B} .fil7 {fill:#F09F84} .fil0 {fill:#F0EAD8} .fil10 {fill:#FCFCF2} .fil6 {fill:#FFCC99}  </style> </defs> <polygon class="fil0" points="0 0 678 0 678 767 0 767"/> <path class="fil1" d="m340 330c65-7 155-10 188 50 15 29-6 66-5 107 3 85-15 38-74 47-80 12-132 1-200 0-59-2-97 46-94-41 1-41-21-77-6-108 32-66 116-62 191-55z"/> <line class="fil2 str0" x1="292" x2="295" y1="375" y2="378"/> <line class="fil2 str0" x1="229" x2="221" y1="348" y2="348"/> <line class="fil2 str0" x1="255" x2="259" y1="359" y2="363"/> <line class="fil2 str0" x1="419" x2="419" y1="335" y2="342"/> <line class="fil2 str0" x1="344" x2="353" y1="359" y2="363"/> <line class="fil2 str0" x1="312" x2="310" y1="355" y2="356"/> <line class="fil2 str0" x1="270" x2="264" y1="333" y2="333"/> <line class="fil2 str0" x1="182" x2="182" y1="361" y2="366"/> <line class="fil2 str0" x1="427" x2="422" y1="367" y2="369"/> <line class="fil2 str0" x1="464" x2="468" y1="350" y2="355"/> <line class="fil2 str0" x1="499" x2="501" y1="368" y2="369"/> <line class="fil2 str0" x1="492" x2="493" y1="350" y2="350"/> <line class="fil2 str0" x1="389" x2="386" y1="367" y2="368"/> <path class="fil3" d="m394 66h-105c-76 35-43 184-91 206 94 36 183 38 282 0-40-22-5-161-86-206z"/> <path class="fil4" d="m310 345c14 3 40 7 72-4 8-3 9-10 5-16-32-6-70-15-98 1-6 11 5 16 21 19z"/> <path class="fil1" d="m302 315c20 0 53-1 72 0 13 0 19 20 7 24-27 9-57 10-86 0-13-4-4-24 7-24z"/> <path class="fil5" d="m378 340c-2 1-4 1-7 2 0-7-1-15-1-22 3 5 5 13 8 20z"/> <path class="fil6" d="m311 266h55c3 17 5 31 8 49-22 7-45 8-71 0 3-18 5-32 8-49z"/> <path class="fil4" d="m368 274c-20 1-40 0-60 2 4 4 33 17 62 14-1-7-1-9-2-16z"/> <path class="fil6" d="m343 55c56 0 86 51 86 114s-30 115-86 115c-57 0-86-52-86-115s29-114 86-114z"/> <path class="fil4" d="m303 162c3 0 4 1 4 3s-1 4-4 4c-2 0-3-2-3-4s1-3 3-3z"/> <path class="fil4" d="m375 162c2 0 4 1 4 3s-2 4-4 4-3-2-3-4 1-3 3-3z"/> <path class="fil2 str1" d="m338 169c0 6 3 21-2 22-12 4-8 22 5 25"/> <path class="fil2 str2" d="m289 146c11-9 20-9 29 0"/> <path class="fil2 str2" d="m390 147c-11-10-20-10-29 0"/> <path class="fil2 str1" d="m323 245c19 9 35 5 48-7"/> <path class="fil3" d="m223 142c17-15 23-50 38-67 21-25 52-39 88-39 26 0 45 11 58 22 30 26 40 77 60 91-48 3-96-16-96-67-28 50-108 65-148 60z"/> <path class="fil6" d="m435 166c7 0 13 7 13 17s-6 17-13 17-13-7-13-17 6-17 13-17z"/> <path class="fil2 str1" d="m429 180c1-7 7-8 11-5"/> <path class="fil6" d="m251 166c-7 0-13 7-13 17s6 17 13 17 12-7 12-17-5-17-12-17z"/> <path class="fil2 str1" d="m257 180c-1-7-7-8-11-5"/> <path class="fil7" d="m290 195c6 1 10 6 10 12-1 5-7 9-13 9-6-1-11-6-10-12 0-6 6-10 13-9z"/> <path class="fil7" d="m396 189c-6 0-11 6-10 11 1 6 6 10 13 9 6-1 11-6 10-12-1-5-6-9-13-8z"/> <path class="fil5" d="m355 345c-2-7-2-15-6-22-2 7-1 15-2 23 3 0 5-1 8-1z"/> <path class="fil5" d="m328 346c0-7 1-14 0-21-5 5-6 13-9 20 3 0 6 1 9 1z"/> <path class="fil5" d="m304 342c0-7 2-15 2-22-5 6-8 12-12 18 0 1 1 1 1 1 3 1 6 2 9 3z"/> <path class="fil6" d="m87 512c34 2 26 52-4 43-6-2-16-7-19-13-3-4-4-8-4-12-1-11 8-20 27-18z"/> <path class="fil6" d="m594 518c-34 3-26 53 4 44 7-2 17-7 20-13 2-5 3-8 4-12 0-11-9-20-28-19z"/> <path class="fil8" d="m531 325c2-6 29 10 38 29 9 20 5 34-4 42-9 7-20 5-29-15s-8-49-5-56z"/> <path class="fil2 str3" d="m564 389c-10-12-15-28-22-44"/> <path class="fil8" d="m622 455c6 1 0-27-13-40-14-14-26-15-35-10-8 5-9 14 5 28 13 13 37 22 43 22z"/> <path class="fil2 str3" d="m579 408c7 12 19 21 30 31"/> <path class="fil8" d="m145 326c-2-6-30 9-39 29-10 19-6 33 3 41 9 7 20 5 29-14 10-20 9-49 7-56z"/> <path class="fil2 str3" d="m110 390c11-12 16-28 23-44"/> <path class="fil9" d="m46 452c-6 0 1-27 14-40 14-14 26-15 35-9 8 5 8 14-5 27-14 13-38 21-44 22z"/> <path class="fil2 str3" d="m90 405c-8 12-19 21-31 31"/> <path class="fil10" d="m103 377h472c11 0 21 10 21 22v271c0 12-10 21-21 21h-472c-11 0-21-9-21-21v-271c0-12 10-22 21-22z"/> <path class="fil2 str4" d="m122 398h434c10 0 18 8 18 18v237c0 10-8 18-18 18h-434c-10 0-18-8-18-18v-237c0-10 8-18 18-18z"/> <path class="fil6" d="m96 471c11-1 42 15 39 23-4 8-28-2-37-3-9 0-43 15-42-2s30-17 40-18z"/> <path class="fil6" d="m97 491c11 0 44 14 39 22-5 9-30-1-39-3-9-1-43 13-44-6-1-18 33-12 44-13z"/> <path class="fil6" d="m92 510c16 1 41 11 37 21-4 9-21-3-36-3s-39 10-40-7c-1-16 24-12 39-11z"/> <path class="fil6" d="m90 527c11 2 25 11 22 18s-15-1-24-2-32 4-30-10 20-7 32-6z"/> <path class="fil2 str5" d="m111 494c-5-2-10-3-16-5-5-1-11 0-17 2"/> <path class="fil2 str5" d="m109 513c-5-2-10-4-16-6-5-1-11 0-17 1"/> <path class="fil2 str5" d="m95 528c-3-1-8-2-12-3-3 0-5 1-6 1"/> <path class="fil6" d="m584 498c-11 0-44 14-39 22s31-1 39-3c9-1 43 13 44-6s-33-13-44-13z"/> <path class="fil6" d="m589 516c-16 1-40 12-36 22 3 9 20-3 35-3s40 10 40-7c1-16-23-12-39-12z"/> <path class="fil6" d="m591 534c-11 2-25 11-22 18s16-2 24-2c9-1 32 4 30-10s-20-7-32-6z"/> <path class="fil6" d="m585 478c-11-2-42 14-38 23 3 8 28-2 36-3 9 0 44 14 43-2-1-17-30-17-41-18z"/> <path class="fil2 str5" d="m570 501c5-2 11-4 16-5 6-2 11 0 17 1"/> <path class="fil2 str5" d="m573 520c4-2 10-4 15-6s11-1 17 1"/> <path class="fil2 str5" d="m587 535c3-1 7-2 11-3 3 0 5 1 6 1"/> <path class="fil9" d="m41 607c1-6 28 3 40 20 11 16 10 30 3 38s-17 8-29-9c-11-16-15-43-14-49z"/> <path class="fil2 str3" d="m82 659c-12-9-18-23-27-36"/> <path class="fil9" d="m185 731c6 0-5-27-21-39s-29-11-37-5c-7 7-7 16 9 28 17 12 43 17 49 16z"/> <path class="fil2 str3" d="m133 689c9 12 22 19 36 28"/> <path class="fil9" d="m639 598c0-6-28 3-40 19s-11 30-4 38 17 8 29-8c11-16 16-43 15-49z"/> <path class="fil2 str3" d="m597 650c12-10 19-23 28-36"/> <path class="fil9" d="m494 726c-6-1 4-28 20-39 16-12 29-11 37-5 8 7 7 16-9 28s-42 17-48 16z"/> <path class="fil2 str3" d="m546 684c-10 12-23 19-36 28"/> <path class="fil2 str1" d="m215 707c11 1 5 19-8 11-8-5-5-18 8-20 9-1 30-1 46 9s29 13 40 13c16 0 16-14 11-20-4-5-13-4-17 1-4 7 5 14 11 7"/> <path class="fil2 str1" d="m463 707c-11 1-5 19 8 11 8-5 5-18-8-20-9-1-30-1-46 9s-29 13-40 13c-16 0-16-14-11-20 4-5 13-4 17 1 4 7-5 14-11 7"/> <path class="fil11" d="m328 710c3 0 6-3 6-7 0-3-3-6-6-6-4 0-7 3-7 6 0 4 3 7 7 7z"/> <path class="fil11" d="m350 710c4 0 7-3 7-7 0-3-3-6-7-6s-6 3-6 6c0 4 2 7 6 7z"/> <path class="fil11" d="m339 726c4 0 6-3 6-6 0-4-2-7-6-7s-7 3-7 7c0 3 3 6 7 6z"/> <path class="fil11" d="m578 656c-1 5 4 6 3 0-1-5 2-23 10-28s26 7 25 16-16 20-21 21c-6 1-3 6 1 2 4-3 21-10 29-6 9 5 8 27-2 31-8 3-24-5-28-9-4-3-6 1-1 3 5 1 19 13 19 22 1 10-19 20-27 14-7-6-8-24-7-29 2-5-3-5-2 0s-2 23-10 28-26-6-25-16c1-9 16-19 21-21 5-1 3-6-1-2-4 3-21 10-29 6-9-5-8-27 1-30 9-4 25 4 29 8 3 4 6-1 1-2-5-2-19-14-19-23-1-10 18-20 26-14 7 6 9 24 7 29z"/> <path class="fil7" d="m584 664c-6-2-13 0-15 6-3 5 0 12 5 15 6 2 12 0 15-6 3-5 0-12-5-15z"/> <path class="fil11" d="m99 658c-2 6 3 6 2 1-1-6 2-24 10-29s26 7 25 17c-1 9-16 19-21 20s-3 6 1 3c4-4 21-10 29-6 9 4 8 26-1 30-9 3-25-5-29-9-3-3-6 1-1 3s19 13 19 22c1 10-18 20-26 14-7-6-9-24-7-29 1-5-4-5-3 0s-2 23-9 28c-9 5-27-6-26-16 1-9 16-19 21-21 6-1 3-5-1-2s-21 10-29 6c-9-5-8-26 2-30 8-4 24 4 28 8s6 0 1-2-19-14-19-22c-1-10 19-20 27-14 7 5 8 23 7 28z"/> <path class="fil7" d="m104 666c-6-3-13 0-16 6-2 6 0 13 6 16 6 2 13 0 16-6s0-13-6-16z"/> <path class="fil11" d="m93 376c0 4 4 3 2-1-1-4-2-18 4-23 5-6 22 1 22 9 0 7-10 17-14 19s-1 5 2 2c2-4 15-11 22-9s10 19 3 24c-6 4-20 0-24-3-3-2-5 2 0 2 4 1 17 8 18 15 2 8-11 19-19 15-6-3-10-17-10-22 1-4-3-3-2 1 2 4 2 18-3 23-6 6-22-1-22-9-1-7 10-17 13-19 4-2 2-5-1-2-3 4-15 11-22 9-8-2-10-19-3-24 5-4 20 0 23 3 4 2 5-2 1-2-4-1-17-8-19-15-2-8 12-19 19-15 7 3 10 17 10 22z"/> <path class="fil7" d="m99 381c-5-1-11 2-12 7s2 10 7 11 10-2 11-7c2-5-1-10-6-11z"/> <path class="fil11" d="m582 378c-1 3 2 4 3 0 0-4 5-18 12-20 7-3 20 9 17 16-2 7-16 13-20 13s-3 4 0 2c4-2 19-4 24 0 6 5 2 22-6 24-7 1-19-8-21-11-2-4-5-1-1 1 3 2 13 14 11 21-1 8-18 13-23 6-5-5-3-20-1-23 2-4-2-5-2-1s-5 18-12 21c-7 2-20-10-17-17 2-7 16-13 20-13s3-4-1-2c-3 2-18 4-23 0-7-5-2-22 6-24 7-1 18 8 21 12 2 3 5 0 1-2s-13-14-12-21c2-8 18-12 24-6 4 5 2 20 0 24z"/> <path class="fil7" d="m585 385c-4-3-9-2-12 2s-3 9 1 12 10 3 13-2c3-4 2-9-2-12z"/> </svg>